%FSLAX25Y25*%
%MOIN*%
G70*
G01*
G75*
G04 Layer_Physical_Order=2*
G04 Layer_Color=16711680*
%ADD10R,0.36221X0.42126*%
%ADD11R,0.10630X0.04331*%
%ADD12C,0.02000*%
%ADD13C,0.02500*%
%ADD14C,0.03937*%
%ADD15C,0.10000*%
%ADD16C,0.05000*%
%ADD17C,0.01000*%
%ADD18R,0.06299X0.06299*%
%ADD19C,0.06299*%
%ADD20C,0.04724*%
%ADD21C,0.05315*%
%ADD22R,0.05315X0.05315*%
%ADD23C,0.06000*%
%ADD24R,0.06000X0.06000*%
%ADD25C,0.05512*%
%ADD26R,0.05906X0.05906*%
%ADD27C,0.05906*%
%ADD28R,0.05906X0.05906*%
%ADD29C,0.05000*%
G36*
X157000Y354D02*
X156646Y0D01*
X0D01*
Y164500D01*
X157000D01*
X157000Y354D01*
D02*
G37*
%LPC*%
G36*
X128180Y35500D02*
X126342D01*
Y33663D01*
X126687Y33805D01*
X127451Y34391D01*
X128037Y35155D01*
X128180Y35500D01*
D02*
G37*
G36*
X123343Y40337D02*
X122998Y40195D01*
X122234Y39608D01*
X121648Y38844D01*
X121505Y38500D01*
X123343D01*
Y40337D01*
D02*
G37*
G36*
X126342D02*
Y38500D01*
X128180D01*
X128037Y38844D01*
X127451Y39608D01*
X126687Y40195D01*
X126342Y40337D01*
D02*
G37*
G36*
X123343Y35500D02*
X121505D01*
X121648Y35155D01*
X122234Y34391D01*
X122998Y33805D01*
X123343Y33663D01*
Y35500D01*
D02*
G37*
G36*
X5000Y36788D02*
X4019Y36659D01*
X3106Y36281D01*
X2321Y35679D01*
X1719Y34894D01*
X1341Y33981D01*
X1212Y33000D01*
X1341Y32019D01*
X1719Y31106D01*
X2321Y30321D01*
X3106Y29719D01*
X4019Y29341D01*
X5000Y29212D01*
X5980Y29341D01*
X6894Y29719D01*
X7679Y30321D01*
X8281Y31106D01*
X8659Y32019D01*
X8788Y33000D01*
X8659Y33981D01*
X8281Y34894D01*
X7679Y35679D01*
X6894Y36281D01*
X5980Y36659D01*
X5000Y36788D01*
D02*
G37*
G36*
X93500D02*
X92519Y36659D01*
X91606Y36281D01*
X90821Y35679D01*
X90219Y34894D01*
X89841Y33981D01*
X89712Y33000D01*
X89841Y32019D01*
X90219Y31106D01*
X90821Y30321D01*
X91606Y29719D01*
X92519Y29341D01*
X93500Y29212D01*
X94481Y29341D01*
X95394Y29719D01*
X96179Y30321D01*
X96781Y31106D01*
X97159Y32019D01*
X97288Y33000D01*
X97159Y33981D01*
X96781Y34894D01*
X96179Y35679D01*
X95394Y36281D01*
X94481Y36659D01*
X93500Y36788D01*
D02*
G37*
G36*
X108815Y40657D02*
X101500D01*
Y33342D01*
X108815D01*
Y40657D01*
D02*
G37*
G36*
X23518Y50000D02*
X22000D01*
Y48482D01*
X22196Y48563D01*
X22898Y49102D01*
X23437Y49804D01*
X23518Y50000D01*
D02*
G37*
G36*
X104000Y56788D02*
X103019Y56659D01*
X102106Y56281D01*
X101321Y55679D01*
X100719Y54894D01*
X100341Y53980D01*
X100212Y53000D01*
X100341Y52020D01*
X100719Y51106D01*
X101321Y50321D01*
X102106Y49719D01*
X103019Y49341D01*
X104000Y49212D01*
X104981Y49341D01*
X105894Y49719D01*
X106679Y50321D01*
X107281Y51106D01*
X107659Y52020D01*
X107788Y53000D01*
X107659Y53980D01*
X107281Y54894D01*
X106679Y55679D01*
X105894Y56281D01*
X104981Y56659D01*
X104000Y56788D01*
D02*
G37*
G36*
X144000D02*
X143019Y56659D01*
X142106Y56281D01*
X141321Y55679D01*
X140719Y54894D01*
X140341Y53980D01*
X140212Y53000D01*
X140341Y52020D01*
X140719Y51106D01*
X141321Y50321D01*
X142106Y49719D01*
X143019Y49341D01*
X144000Y49212D01*
X144981Y49341D01*
X145894Y49719D01*
X146679Y50321D01*
X147281Y51106D01*
X147659Y52020D01*
X147788Y53000D01*
X147659Y53980D01*
X147281Y54894D01*
X146679Y55679D01*
X145894Y56281D01*
X144981Y56659D01*
X144000Y56788D01*
D02*
G37*
G36*
X19000Y50000D02*
X17482D01*
X17563Y49804D01*
X18102Y49102D01*
X18804Y48563D01*
X19000Y48482D01*
Y50000D01*
D02*
G37*
G36*
X75600Y49035D02*
X74556Y48897D01*
X73583Y48494D01*
X72747Y47853D01*
X72106Y47017D01*
X71703Y46044D01*
X71566Y45000D01*
X71703Y43956D01*
X72106Y42983D01*
X72747Y42147D01*
X73583Y41506D01*
X74556Y41103D01*
X75600Y40966D01*
X76644Y41103D01*
X77617Y41506D01*
X78453Y42147D01*
X79094Y42983D01*
X79497Y43956D01*
X79635Y45000D01*
X79497Y46044D01*
X79094Y47017D01*
X78453Y47853D01*
X77617Y48494D01*
X76644Y48897D01*
X75600Y49035D01*
D02*
G37*
G36*
X85700D02*
X84656Y48897D01*
X83683Y48494D01*
X82847Y47853D01*
X82206Y47017D01*
X81803Y46044D01*
X81665Y45000D01*
X81803Y43956D01*
X82206Y42983D01*
X82847Y42147D01*
X83683Y41506D01*
X84656Y41103D01*
X85700Y40966D01*
X86744Y41103D01*
X87717Y41506D01*
X88553Y42147D01*
X89194Y42983D01*
X89597Y43956D01*
X89735Y45000D01*
X89597Y46044D01*
X89194Y47017D01*
X88553Y47853D01*
X87717Y48494D01*
X86744Y48897D01*
X85700Y49035D01*
D02*
G37*
G36*
X20500Y87529D02*
X19324Y87413D01*
X18193Y87070D01*
X17151Y86513D01*
X16237Y85763D01*
X15487Y84850D01*
X14930Y83807D01*
X14587Y82676D01*
X14471Y81500D01*
X14587Y80324D01*
X14930Y79193D01*
X15487Y78150D01*
X16237Y77237D01*
X30215Y63259D01*
Y29373D01*
X30331Y28197D01*
X30674Y27066D01*
X31231Y26024D01*
X31981Y25110D01*
X33814Y23277D01*
Y17000D01*
X33929Y15824D01*
X34272Y14693D01*
X34830Y13650D01*
X35579Y12737D01*
X36493Y11987D01*
X37535Y11430D01*
X38666Y11087D01*
X39843Y10971D01*
X41019Y11087D01*
X42150Y11430D01*
X43192Y11987D01*
X44106Y12737D01*
X44855Y13650D01*
X45413Y14693D01*
X45756Y15824D01*
X45872Y17000D01*
Y25775D01*
X45756Y26951D01*
X45413Y28082D01*
X45028Y28801D01*
X45257Y29245D01*
X45981Y29341D01*
X46894Y29719D01*
X47679Y30321D01*
X48281Y31106D01*
X48659Y32019D01*
X48788Y33000D01*
X48683Y33799D01*
X49625Y34741D01*
X50041Y34464D01*
X49841Y33981D01*
X49712Y33000D01*
X49841Y32019D01*
X50219Y31106D01*
X50821Y30321D01*
X51606Y29719D01*
X52520Y29341D01*
X53500Y29212D01*
X54480Y29341D01*
X55394Y29719D01*
X56179Y30321D01*
X56781Y31106D01*
X57159Y32019D01*
X57288Y33000D01*
X57159Y33981D01*
X56781Y34894D01*
X56179Y35679D01*
X55394Y36281D01*
X54480Y36659D01*
X53500Y36788D01*
X52520Y36659D01*
X52036Y36459D01*
X51759Y36875D01*
X52945Y38061D01*
X57771D01*
X58552Y38216D01*
X59213Y38658D01*
X62691Y42136D01*
X63383Y41606D01*
X64356Y41203D01*
X65400Y41065D01*
X66444Y41203D01*
X67417Y41606D01*
X68253Y42247D01*
X68894Y43083D01*
X69297Y44056D01*
X69435Y45100D01*
X69297Y46144D01*
X68894Y47117D01*
X68253Y47953D01*
X67417Y48594D01*
X66444Y48997D01*
X65400Y49135D01*
X64356Y48997D01*
X63383Y48594D01*
X62547Y47953D01*
X61906Y47117D01*
X61797Y46855D01*
X61329Y46542D01*
X60152Y45365D01*
X59679Y45526D01*
X59597Y46144D01*
X59194Y47117D01*
X58553Y47953D01*
X57717Y48594D01*
X56744Y48997D01*
X55700Y49135D01*
X54656Y48997D01*
X53683Y48594D01*
X52847Y47953D01*
X52206Y47117D01*
X51803Y46144D01*
X51666Y45100D01*
X51803Y44056D01*
X52206Y43083D01*
X52586Y42588D01*
X52365Y42139D01*
X52100D01*
X51320Y41984D01*
X50658Y41542D01*
X45799Y36683D01*
X45000Y36788D01*
X44019Y36659D01*
X43106Y36281D01*
X42722Y35986D01*
X42273Y36207D01*
Y65756D01*
X42273Y65756D01*
X42157Y66932D01*
X41814Y68063D01*
X41257Y69105D01*
X40507Y70019D01*
X40507Y70019D01*
X24763Y85763D01*
X23850Y86513D01*
X22807Y87070D01*
X21676Y87413D01*
X20500Y87529D01*
D02*
G37*
G36*
X21657Y20337D02*
Y18500D01*
X23495D01*
X23352Y18845D01*
X22766Y19609D01*
X22002Y20195D01*
X21657Y20337D01*
D02*
G37*
G36*
X75953Y10953D02*
X73500D01*
Y8500D01*
X75953D01*
Y10953D01*
D02*
G37*
G36*
X120500Y19685D02*
X119417Y19543D01*
X118407Y19125D01*
X117541Y18460D01*
X116875Y17593D01*
X116457Y16583D01*
X116315Y15500D01*
X116457Y14417D01*
X116875Y13407D01*
X117541Y12540D01*
X118407Y11875D01*
X119417Y11457D01*
X120500Y11315D01*
X121583Y11457D01*
X122593Y11875D01*
X123459Y12540D01*
X124125Y13407D01*
X124543Y14417D01*
X124685Y15500D01*
X124543Y16583D01*
X124125Y17593D01*
X123459Y18460D01*
X122593Y19125D01*
X121583Y19543D01*
X120500Y19685D01*
D02*
G37*
G36*
X130500D02*
X129417Y19543D01*
X128407Y19125D01*
X127541Y18460D01*
X126875Y17593D01*
X126457Y16583D01*
X126315Y15500D01*
X126457Y14417D01*
X126875Y13407D01*
X127541Y12540D01*
X128407Y11875D01*
X129417Y11457D01*
X130500Y11315D01*
X131583Y11457D01*
X132593Y11875D01*
X133459Y12540D01*
X134125Y13407D01*
X134543Y14417D01*
X134685Y15500D01*
X134543Y16583D01*
X134125Y17593D01*
X133459Y18460D01*
X132593Y19125D01*
X131583Y19543D01*
X130500Y19685D01*
D02*
G37*
G36*
X70500Y10953D02*
X68047D01*
Y8500D01*
X70500D01*
Y10953D01*
D02*
G37*
G36*
X82000Y10987D02*
X80968Y10851D01*
X80007Y10453D01*
X79181Y9819D01*
X78547Y8993D01*
X78149Y8032D01*
X78013Y7000D01*
X78149Y5968D01*
X78547Y5007D01*
X79181Y4181D01*
X80007Y3547D01*
X80968Y3149D01*
X82000Y3013D01*
X83032Y3149D01*
X83993Y3547D01*
X84819Y4181D01*
X85453Y5007D01*
X85851Y5968D01*
X85987Y7000D01*
X85851Y8032D01*
X85453Y8993D01*
X84819Y9819D01*
X83993Y10453D01*
X83032Y10851D01*
X82000Y10987D01*
D02*
G37*
G36*
X70500Y5500D02*
X68047D01*
Y3047D01*
X70500D01*
Y5500D01*
D02*
G37*
G36*
X75953D02*
X73500D01*
Y3047D01*
X75953D01*
Y5500D01*
D02*
G37*
G36*
X109000Y19650D02*
X106350D01*
Y17000D01*
X109000D01*
Y19650D01*
D02*
G37*
G36*
X114650D02*
X112000D01*
Y17000D01*
X114650D01*
Y19650D01*
D02*
G37*
G36*
X18657Y20337D02*
X18313Y20195D01*
X17549Y19609D01*
X16963Y18845D01*
X16820Y18500D01*
X18657D01*
Y20337D01*
D02*
G37*
G36*
X23495Y15500D02*
X21657D01*
Y13663D01*
X22002Y13805D01*
X22766Y14391D01*
X23352Y15156D01*
X23495Y15500D01*
D02*
G37*
G36*
X109000Y14000D02*
X106350D01*
Y11350D01*
X109000D01*
Y14000D01*
D02*
G37*
G36*
X114650D02*
X112000D01*
Y11350D01*
X114650D01*
Y14000D01*
D02*
G37*
G36*
X18657Y15500D02*
X16820D01*
X16963Y15156D01*
X17549Y14391D01*
X18313Y13805D01*
X18657Y13663D01*
Y15500D01*
D02*
G37*
G36*
X65700Y59035D02*
X64656Y58897D01*
X63683Y58494D01*
X62847Y57853D01*
X62206Y57017D01*
X61803Y56044D01*
X61665Y55000D01*
X61803Y53956D01*
X62206Y52983D01*
X62847Y52147D01*
X63683Y51506D01*
X64656Y51103D01*
X65700Y50965D01*
X66744Y51103D01*
X67717Y51506D01*
X68553Y52147D01*
X69194Y52983D01*
X69597Y53956D01*
X69735Y55000D01*
X69597Y56044D01*
X69194Y57017D01*
X68553Y57853D01*
X67717Y58494D01*
X66744Y58897D01*
X65700Y59035D01*
D02*
G37*
G36*
X21000Y109487D02*
X19968Y109351D01*
X19007Y108953D01*
X18181Y108319D01*
X17547Y107493D01*
X17149Y106532D01*
X17013Y105500D01*
X17149Y104468D01*
X17547Y103507D01*
X18181Y102681D01*
X19007Y102047D01*
X19968Y101649D01*
X21000Y101513D01*
X22032Y101649D01*
X22993Y102047D01*
X23819Y102681D01*
X24453Y103507D01*
X24851Y104468D01*
X24987Y105500D01*
X24851Y106532D01*
X24453Y107493D01*
X23819Y108319D01*
X22993Y108953D01*
X22032Y109351D01*
X21000Y109487D01*
D02*
G37*
G36*
X99347Y104165D02*
X94532D01*
Y102500D01*
X99347D01*
Y104165D01*
D02*
G37*
G36*
X80000Y117288D02*
X79019Y117159D01*
X78106Y116781D01*
X77321Y116179D01*
X76719Y115394D01*
X76341Y114480D01*
X76212Y113500D01*
X76341Y112520D01*
X76719Y111606D01*
X77321Y110821D01*
X78106Y110219D01*
X79019Y109841D01*
X80000Y109712D01*
X80980Y109841D01*
X81894Y110219D01*
X82679Y110821D01*
X83281Y111606D01*
X83659Y112520D01*
X83788Y113500D01*
X83659Y114480D01*
X83281Y115394D01*
X82679Y116179D01*
X81894Y116781D01*
X80980Y117159D01*
X80000Y117288D01*
D02*
G37*
G36*
X79500Y87530D02*
X78586Y87410D01*
X77735Y87057D01*
X77004Y86496D01*
X76443Y85765D01*
X76090Y84914D01*
X75970Y84000D01*
X76090Y83086D01*
X76443Y82235D01*
X77004Y81504D01*
X77735Y80943D01*
X78586Y80590D01*
X79500Y80470D01*
X80071Y80545D01*
X81058Y79558D01*
X81720Y79116D01*
X82500Y78961D01*
X86717D01*
Y77835D01*
X99347D01*
Y84165D01*
X86717D01*
Y83039D01*
X83345D01*
X82955Y83429D01*
X83030Y84000D01*
X82910Y84914D01*
X82557Y85765D01*
X81996Y86496D01*
X81265Y87057D01*
X80414Y87410D01*
X79500Y87530D01*
D02*
G37*
G36*
X97667Y72000D02*
X96000D01*
Y70333D01*
X96265Y70443D01*
X96996Y71004D01*
X97557Y71735D01*
X97667Y72000D01*
D02*
G37*
G36*
X93000Y76667D02*
X92735Y76557D01*
X92004Y75996D01*
X91443Y75265D01*
X91333Y75000D01*
X93000D01*
Y76667D01*
D02*
G37*
G36*
X96000D02*
Y75000D01*
X97667D01*
X97557Y75265D01*
X96996Y75996D01*
X96265Y76557D01*
X96000Y76667D01*
D02*
G37*
G36*
X90500Y116000D02*
X88833D01*
X88943Y115735D01*
X89504Y115004D01*
X90235Y114443D01*
X90500Y114333D01*
Y116000D01*
D02*
G37*
G36*
X21000Y139487D02*
X19968Y139351D01*
X19007Y138953D01*
X18181Y138319D01*
X17547Y137493D01*
X17149Y136532D01*
X17013Y135500D01*
X17149Y134468D01*
X17547Y133507D01*
X18181Y132681D01*
X19007Y132047D01*
X19968Y131649D01*
X21000Y131513D01*
X22032Y131649D01*
X22993Y132047D01*
X23819Y132681D01*
X24453Y133507D01*
X24851Y134468D01*
X24987Y135500D01*
X24851Y136532D01*
X24453Y137493D01*
X23819Y138319D01*
X22993Y138953D01*
X22032Y139351D01*
X21000Y139487D01*
D02*
G37*
G36*
X99347Y144000D02*
X94532D01*
Y142335D01*
X99347D01*
Y144000D01*
D02*
G37*
G36*
X145283Y157563D02*
X107063D01*
Y154696D01*
X86267D01*
X85353Y154575D01*
X84502Y154223D01*
X83771Y153662D01*
X79139Y149030D01*
X24953D01*
Y149453D01*
X17047D01*
Y141547D01*
X24953D01*
Y141970D01*
X80601D01*
X81515Y142090D01*
X82367Y142443D01*
X83098Y143004D01*
X86255Y146161D01*
X86717Y145969D01*
Y142335D01*
X91531D01*
Y145500D01*
X93032D01*
Y147000D01*
X99347D01*
Y147635D01*
X107063D01*
Y113437D01*
X107063D01*
X107063Y113063D01*
X107063D01*
Y94530D01*
X99448D01*
X96605Y97373D01*
X96796Y97835D01*
X99347D01*
Y99500D01*
X93032D01*
Y101000D01*
X91531D01*
Y104165D01*
X86717D01*
Y100531D01*
X86255Y100339D01*
X78354Y108240D01*
X77622Y108801D01*
X76771Y109154D01*
X75857Y109274D01*
X70500D01*
X70468Y109773D01*
X70981Y109841D01*
X71894Y110219D01*
X72679Y110821D01*
X73281Y111606D01*
X73659Y112520D01*
X73788Y113500D01*
X73659Y114480D01*
X73281Y115394D01*
X72679Y116179D01*
X71894Y116781D01*
X70981Y117159D01*
X70000Y117288D01*
X69020Y117159D01*
X68106Y116781D01*
X67321Y116179D01*
X66719Y115394D01*
X66341Y114480D01*
X66212Y113500D01*
X66341Y112520D01*
X66719Y111606D01*
X67321Y110821D01*
X68106Y110219D01*
X69020Y109841D01*
X69532Y109773D01*
X69499Y109274D01*
X60501D01*
X60468Y109773D01*
X60980Y109841D01*
X61894Y110219D01*
X62679Y110821D01*
X63281Y111606D01*
X63659Y112520D01*
X63788Y113500D01*
X63683Y114299D01*
X72845Y123461D01*
X86717D01*
Y122335D01*
X99347D01*
Y128665D01*
X86717D01*
Y127539D01*
X72000D01*
X71220Y127384D01*
X70558Y126942D01*
X60799Y117183D01*
X60000Y117288D01*
X59020Y117159D01*
X58106Y116781D01*
X57321Y116179D01*
X56719Y115394D01*
X56341Y114480D01*
X56212Y113500D01*
X56341Y112520D01*
X56719Y111606D01*
X57321Y110821D01*
X58106Y110219D01*
X59020Y109841D01*
X59532Y109773D01*
X59500Y109274D01*
X53208D01*
X52987Y109723D01*
X53281Y110106D01*
X53659Y111020D01*
X53788Y112000D01*
X53659Y112980D01*
X53281Y113894D01*
X52679Y114679D01*
X51894Y115281D01*
X50981Y115659D01*
X50000Y115788D01*
X49020Y115659D01*
X48106Y115281D01*
X47321Y114679D01*
X46719Y113894D01*
X46341Y112980D01*
X46278Y112502D01*
X45804Y112341D01*
X40149Y117996D01*
X39418Y118557D01*
X38567Y118910D01*
X37653Y119030D01*
X22806D01*
X22032Y119351D01*
X21000Y119487D01*
X19968Y119351D01*
X19007Y118953D01*
X18181Y118319D01*
X17547Y117493D01*
X17149Y116532D01*
X17013Y115500D01*
X17149Y114468D01*
X17547Y113507D01*
X18181Y112681D01*
X19007Y112047D01*
X19968Y111649D01*
X21000Y111513D01*
X22032Y111649D01*
X22806Y111970D01*
X36191D01*
X44912Y103248D01*
X45644Y102687D01*
X46495Y102334D01*
X47409Y102214D01*
X74395D01*
X83771Y92838D01*
X84502Y92277D01*
X85353Y91925D01*
X86267Y91804D01*
X86267Y91804D01*
X92188D01*
X95489Y88504D01*
X96220Y87943D01*
X97072Y87590D01*
X97985Y87470D01*
X107063D01*
Y68937D01*
X145283D01*
Y113063D01*
X145283D01*
X145283Y113437D01*
X145283Y113437D01*
Y113437D01*
Y157563D01*
D02*
G37*
G36*
X21000Y129487D02*
X19968Y129351D01*
X19007Y128953D01*
X18181Y128319D01*
X17547Y127493D01*
X17149Y126532D01*
X17013Y125500D01*
X17149Y124468D01*
X17547Y123507D01*
X18181Y122681D01*
X19007Y122047D01*
X19968Y121649D01*
X21000Y121513D01*
X22032Y121649D01*
X22993Y122047D01*
X23819Y122681D01*
X24453Y123507D01*
X24851Y124468D01*
X24987Y125500D01*
X24851Y126532D01*
X24453Y127493D01*
X23819Y128319D01*
X22993Y128953D01*
X22032Y129351D01*
X21000Y129487D01*
D02*
G37*
G36*
X95167Y116000D02*
X93500D01*
Y114333D01*
X93765Y114443D01*
X94496Y115004D01*
X95057Y115735D01*
X95167Y116000D01*
D02*
G37*
G36*
X90500Y120667D02*
X90235Y120557D01*
X89504Y119996D01*
X88943Y119265D01*
X88833Y119000D01*
X90500D01*
Y120667D01*
D02*
G37*
G36*
X93500D02*
Y119000D01*
X95167D01*
X95057Y119265D01*
X94496Y119996D01*
X93765Y120557D01*
X93500Y120667D01*
D02*
G37*
G36*
X19000Y54518D02*
X18804Y54437D01*
X18102Y53898D01*
X17563Y53196D01*
X17482Y53000D01*
X19000D01*
Y54518D01*
D02*
G37*
G36*
X22000D02*
Y53000D01*
X23518D01*
X23437Y53196D01*
X22898Y53898D01*
X22196Y54437D01*
X22000Y54518D01*
D02*
G37*
G36*
X54200Y58708D02*
X53683Y58494D01*
X52847Y57853D01*
X52206Y57017D01*
X51992Y56500D01*
X54200D01*
Y58708D01*
D02*
G37*
G36*
X59408Y53500D02*
X57200D01*
Y51292D01*
X57717Y51506D01*
X58553Y52147D01*
X59194Y52983D01*
X59408Y53500D01*
D02*
G37*
G36*
X75600Y59035D02*
X74556Y58897D01*
X73583Y58494D01*
X72747Y57853D01*
X72106Y57017D01*
X71703Y56044D01*
X71566Y55000D01*
X71703Y53956D01*
X72106Y52983D01*
X72747Y52147D01*
X73583Y51506D01*
X74556Y51103D01*
X75600Y50965D01*
X76644Y51103D01*
X77617Y51506D01*
X78453Y52147D01*
X79094Y52983D01*
X79497Y53956D01*
X79635Y55000D01*
X79497Y56044D01*
X79094Y57017D01*
X78453Y57853D01*
X77617Y58494D01*
X76644Y58897D01*
X75600Y59035D01*
D02*
G37*
G36*
X89600Y59100D02*
X81600D01*
Y51100D01*
X89600D01*
Y59100D01*
D02*
G37*
G36*
X54200Y53500D02*
X51992D01*
X52206Y52983D01*
X52847Y52147D01*
X53683Y51506D01*
X54200Y51292D01*
Y53500D01*
D02*
G37*
G36*
X57200Y58708D02*
Y56500D01*
X59408D01*
X59194Y57017D01*
X58553Y57853D01*
X57717Y58494D01*
X57200Y58708D01*
D02*
G37*
G36*
X70000Y77288D02*
X69020Y77159D01*
X68106Y76781D01*
X67321Y76179D01*
X66719Y75394D01*
X66341Y74480D01*
X66212Y73500D01*
X66341Y72519D01*
X66719Y71606D01*
X67321Y70821D01*
X68106Y70219D01*
X69020Y69841D01*
X70000Y69712D01*
X70981Y69841D01*
X71894Y70219D01*
X72679Y70821D01*
X73281Y71606D01*
X73659Y72519D01*
X73788Y73500D01*
X73659Y74480D01*
X73281Y75394D01*
X72679Y76179D01*
X71894Y76781D01*
X70981Y77159D01*
X70000Y77288D01*
D02*
G37*
G36*
X80000D02*
X79019Y77159D01*
X78106Y76781D01*
X77321Y76179D01*
X76719Y75394D01*
X76341Y74480D01*
X76212Y73500D01*
X76341Y72519D01*
X76719Y71606D01*
X77321Y70821D01*
X78106Y70219D01*
X79019Y69841D01*
X80000Y69712D01*
X80980Y69841D01*
X81894Y70219D01*
X82679Y70821D01*
X83281Y71606D01*
X83659Y72519D01*
X83788Y73500D01*
X83659Y74480D01*
X83281Y75394D01*
X82679Y76179D01*
X81894Y76781D01*
X80980Y77159D01*
X80000Y77288D01*
D02*
G37*
G36*
X93000Y72000D02*
X91333D01*
X91443Y71735D01*
X92004Y71004D01*
X92735Y70443D01*
X93000Y70333D01*
Y72000D01*
D02*
G37*
G36*
X60000Y77288D02*
X59020Y77159D01*
X58106Y76781D01*
X57321Y76179D01*
X56719Y75394D01*
X56341Y74480D01*
X56212Y73500D01*
X56341Y72519D01*
X56719Y71606D01*
X57321Y70821D01*
X58106Y70219D01*
X59020Y69841D01*
X60000Y69712D01*
X60980Y69841D01*
X61894Y70219D01*
X62679Y70821D01*
X63281Y71606D01*
X63659Y72519D01*
X63788Y73500D01*
X63659Y74480D01*
X63281Y75394D01*
X62679Y76179D01*
X61894Y76781D01*
X60980Y77159D01*
X60000Y77288D01*
D02*
G37*
G36*
X64500Y68288D02*
X63520Y68159D01*
X62606Y67781D01*
X61821Y67179D01*
X61219Y66394D01*
X60841Y65481D01*
X60712Y64500D01*
X60841Y63520D01*
X61219Y62606D01*
X61821Y61821D01*
X62606Y61219D01*
X63520Y60841D01*
X64500Y60712D01*
X65481Y60841D01*
X66394Y61219D01*
X67179Y61821D01*
X67781Y62606D01*
X68159Y63520D01*
X68288Y64500D01*
X68159Y65481D01*
X67781Y66394D01*
X67179Y67179D01*
X66394Y67781D01*
X65481Y68159D01*
X64500Y68288D01*
D02*
G37*
G36*
X104500D02*
X103519Y68159D01*
X102606Y67781D01*
X101821Y67179D01*
X101219Y66394D01*
X100841Y65481D01*
X100712Y64500D01*
X100841Y63520D01*
X101219Y62606D01*
X101821Y61821D01*
X102606Y61219D01*
X103519Y60841D01*
X104500Y60712D01*
X105481Y60841D01*
X106394Y61219D01*
X107179Y61821D01*
X107781Y62606D01*
X108159Y63520D01*
X108288Y64500D01*
X108159Y65481D01*
X107781Y66394D01*
X107179Y67179D01*
X106394Y67781D01*
X105481Y68159D01*
X104500Y68288D01*
D02*
G37*
G36*
X50000Y75788D02*
X49020Y75659D01*
X48106Y75281D01*
X47321Y74679D01*
X46719Y73894D01*
X46341Y72980D01*
X46212Y72000D01*
X46341Y71020D01*
X46719Y70106D01*
X47321Y69321D01*
X48106Y68719D01*
X49020Y68341D01*
X50000Y68212D01*
X50981Y68341D01*
X51894Y68719D01*
X52679Y69321D01*
X53281Y70106D01*
X53659Y71020D01*
X53788Y72000D01*
X53659Y72980D01*
X53281Y73894D01*
X52679Y74679D01*
X51894Y75281D01*
X50981Y75659D01*
X50000Y75788D01*
D02*
G37*
%LPD*%
D10*
X126173Y91000D02*
D03*
Y135500D02*
D03*
D11*
X93032Y101000D02*
D03*
Y81000D02*
D03*
Y145500D02*
D03*
Y125500D02*
D03*
D12*
X45000Y33000D02*
X52100Y40100D01*
X57771D01*
X62771Y45100D01*
X65400D01*
X79500Y84000D02*
X82500Y81000D01*
X93032D01*
X60000Y113500D02*
X72000Y125500D01*
X93032D01*
D15*
X20500Y81500D02*
X36244Y65756D01*
Y29373D02*
Y65756D01*
Y29373D02*
X39843Y25775D01*
Y17000D02*
Y25775D01*
D16*
X21000Y115500D02*
X37653D01*
X47409Y105744D01*
X75857D01*
X86267Y95335D01*
X93651D01*
X97985Y91000D01*
X21000Y145500D02*
X80601D01*
X86267Y151165D02*
X110508D01*
X126173Y135500D01*
X80601Y145500D02*
X86267Y151165D01*
X97985Y91000D02*
X126173D01*
D18*
X110500Y15500D02*
D03*
D19*
X120500D02*
D03*
X130500D02*
D03*
D20*
X20500Y81500D02*
D03*
Y51500D02*
D03*
D21*
X20157Y17000D02*
D03*
X124843Y37000D02*
D03*
D22*
X39843Y17000D02*
D03*
X105157Y37000D02*
D03*
D23*
X55700Y55000D02*
D03*
Y45100D02*
D03*
X65700Y55000D02*
D03*
X65400Y45100D02*
D03*
X75600Y55000D02*
D03*
Y45000D02*
D03*
X85700D02*
D03*
D24*
X85600Y55100D02*
D03*
D25*
X60000Y73500D02*
D03*
Y113500D02*
D03*
X70000Y73500D02*
D03*
Y113500D02*
D03*
X80000Y73500D02*
D03*
Y113500D02*
D03*
X50000Y72000D02*
D03*
Y112000D02*
D03*
X45000Y33000D02*
D03*
X5000D02*
D03*
X53500D02*
D03*
X93500D02*
D03*
X64500Y64500D02*
D03*
X104500D02*
D03*
X104000Y53000D02*
D03*
X144000D02*
D03*
D26*
X21000Y145500D02*
D03*
D27*
Y135500D02*
D03*
Y125500D02*
D03*
Y115500D02*
D03*
Y105500D02*
D03*
X82000Y7000D02*
D03*
D28*
X72000D02*
D03*
D29*
X79500Y84000D02*
D03*
X94500Y73500D02*
D03*
X92000Y117500D02*
D03*
M02*
