%FSLAX25Y25*%
%MOIN*%
G70*
G01*
G75*
G04 Layer_Color=32896*
%ADD10R,0.36221X0.42126*%
%ADD11R,0.10630X0.04331*%
%ADD12C,0.02000*%
%ADD13C,0.02500*%
%ADD14C,0.03937*%
%ADD15C,0.10000*%
%ADD16C,0.05000*%
%ADD17C,0.01000*%
%ADD18R,0.06299X0.06299*%
%ADD19C,0.06299*%
%ADD20C,0.04724*%
%ADD21C,0.05315*%
%ADD22R,0.05315X0.05315*%
%ADD23C,0.06000*%
%ADD24R,0.06000X0.06000*%
%ADD25C,0.05512*%
%ADD26R,0.05906X0.05906*%
%ADD27C,0.05906*%
%ADD28R,0.05906X0.05906*%
%ADD29C,0.05000*%
%ADD30C,0.00787*%
%ADD31C,0.00984*%
%ADD32C,0.00050*%
%ADD33C,0.00591*%
%ADD34R,0.37021X0.42926*%
%ADD35R,0.11430X0.05131*%
%ADD36R,0.07099X0.07099*%
%ADD37C,0.07099*%
%ADD38C,0.05524*%
%ADD39C,0.06115*%
%ADD40R,0.06115X0.06115*%
%ADD41C,0.06800*%
%ADD42R,0.06800X0.06800*%
%ADD43C,0.06312*%
%ADD44R,0.06706X0.06706*%
%ADD45C,0.06706*%
%ADD46R,0.06706X0.06706*%
%ADD47C,0.05800*%
D17*
X150150Y74349D02*
X154148D01*
X155148Y73349D01*
Y71350D01*
X154148Y70350D01*
X150150D01*
X149150Y71350D01*
Y73349D01*
X151149Y72349D02*
X149150Y74349D01*
Y73349D02*
X150150Y74349D01*
X148150Y76348D02*
Y80347D01*
X155148Y82346D02*
X149150D01*
X151149Y84346D01*
X149150Y86345D01*
X155148D01*
X150150Y118849D02*
X154148D01*
X155148Y117849D01*
Y115850D01*
X154148Y114850D01*
X150150D01*
X149150Y115850D01*
Y117849D01*
X151149Y116849D02*
X149150Y118849D01*
Y117849D02*
X150150Y118849D01*
X148150Y120848D02*
Y124847D01*
X149150Y126846D02*
X155148D01*
Y129845D01*
X154148Y130845D01*
X152149D01*
X151149Y129845D01*
Y126846D01*
Y128846D02*
X149150Y130845D01*
D30*
X101567Y111669D02*
X106488D01*
X101567Y70331D02*
Y111669D01*
Y70331D02*
X106488D01*
X101567Y156169D02*
X106488D01*
X101567Y114831D02*
Y156169D01*
Y114831D02*
X106488D01*
D31*
X90992Y76000D02*
G03*
X90992Y76000I-492J0D01*
G01*
Y120500D02*
G03*
X90992Y120500I-492J0D01*
G01*
M02*
