%FSLAX25Y25*%
%MOIN*%
G70*
G01*
G75*
G04 Layer_Color=8388736*
%ADD10R,0.36221X0.42126*%
%ADD11R,0.10630X0.04331*%
%ADD12C,0.02000*%
%ADD13C,0.02500*%
%ADD14C,0.03937*%
%ADD15C,0.10000*%
%ADD16C,0.05000*%
%ADD17C,0.01000*%
%ADD18R,0.06299X0.06299*%
%ADD19C,0.06299*%
%ADD20C,0.04724*%
%ADD21C,0.05315*%
%ADD22R,0.05315X0.05315*%
%ADD23C,0.06000*%
%ADD24R,0.06000X0.06000*%
%ADD25C,0.05512*%
%ADD26R,0.05906X0.05906*%
%ADD27C,0.05906*%
%ADD28R,0.05906X0.05906*%
%ADD29C,0.05000*%
%ADD30C,0.00787*%
%ADD31C,0.00984*%
%ADD32C,0.00050*%
%ADD33C,0.00591*%
%ADD34R,0.37021X0.42926*%
%ADD35R,0.11430X0.05131*%
%ADD36R,0.07099X0.07099*%
%ADD37C,0.07099*%
%ADD38C,0.05524*%
%ADD39C,0.06115*%
%ADD40R,0.06115X0.06115*%
%ADD41C,0.06800*%
%ADD42R,0.06800X0.06800*%
%ADD43C,0.06312*%
%ADD44R,0.06706X0.06706*%
%ADD45C,0.06706*%
%ADD46R,0.06706X0.06706*%
%ADD47C,0.05800*%
D34*
X125173Y135500D02*
D03*
X125673Y91000D02*
D03*
D35*
X92032Y125500D02*
D03*
Y145500D02*
D03*
X92532Y81000D02*
D03*
Y101000D02*
D03*
D36*
X110500Y15500D02*
D03*
D37*
X120500D02*
D03*
X130500D02*
D03*
D38*
X20500Y81500D02*
D03*
Y51500D02*
D03*
D39*
X20157Y17000D02*
D03*
X124843Y37000D02*
D03*
D40*
X39843Y17000D02*
D03*
X105157Y37000D02*
D03*
D41*
X55700Y55000D02*
D03*
Y45100D02*
D03*
X65700Y55000D02*
D03*
X65400Y45100D02*
D03*
X75600Y55000D02*
D03*
Y45000D02*
D03*
X85700D02*
D03*
D42*
X85600Y55100D02*
D03*
D43*
X60000Y73500D02*
D03*
Y113500D02*
D03*
X70000Y73500D02*
D03*
Y113500D02*
D03*
X80000Y73500D02*
D03*
Y113500D02*
D03*
X50000Y72000D02*
D03*
Y112000D02*
D03*
X45000Y33000D02*
D03*
X5000D02*
D03*
X53500D02*
D03*
X93500D02*
D03*
X64500Y64500D02*
D03*
X104500D02*
D03*
X104000Y53000D02*
D03*
X144000D02*
D03*
D44*
X21000Y145500D02*
D03*
D45*
Y135500D02*
D03*
Y125500D02*
D03*
Y115500D02*
D03*
Y105500D02*
D03*
X82000Y7000D02*
D03*
D46*
X72000D02*
D03*
D47*
X79500Y84000D02*
D03*
X94500Y73500D02*
D03*
X92000Y117500D02*
D03*
M02*
