%FSLAX25Y25*%
%MOIN*%
G70*
G01*
G75*
G04 Layer_Physical_Order=1*
G04 Layer_Color=255*
%ADD10R,0.36221X0.42126*%
%ADD11R,0.10630X0.04331*%
%ADD12C,0.02000*%
%ADD13C,0.02500*%
%ADD14C,0.03937*%
%ADD15C,0.10000*%
%ADD16C,0.05000*%
%ADD17C,0.01000*%
%ADD18R,0.06299X0.06299*%
%ADD19C,0.06299*%
%ADD20C,0.04724*%
%ADD21C,0.05315*%
%ADD22R,0.05315X0.05315*%
%ADD23C,0.06000*%
%ADD24R,0.06000X0.06000*%
%ADD25C,0.05512*%
%ADD26R,0.05906X0.05906*%
%ADD27C,0.05906*%
%ADD28R,0.05906X0.05906*%
%ADD29C,0.05000*%
G36*
X55015Y157008D02*
X37038Y139030D01*
X22806D01*
X22032Y139351D01*
X21000Y139487D01*
X19968Y139351D01*
X19007Y138953D01*
X18181Y138319D01*
X17547Y137493D01*
X17149Y136532D01*
X17013Y135500D01*
X17066Y135096D01*
X16618Y134874D01*
X15530Y135962D01*
Y149538D01*
X23462Y157470D01*
X54824D01*
X55015Y157008D01*
D02*
G37*
G36*
X157000Y0D02*
X0D01*
Y164500D01*
X20034D01*
X20195Y164026D01*
X19504Y163496D01*
X9504Y153496D01*
X8943Y152765D01*
X8590Y151914D01*
X8470Y151000D01*
Y134500D01*
X8590Y133586D01*
X8943Y132735D01*
X9504Y132004D01*
X17226Y124281D01*
X17547Y123507D01*
X18181Y122681D01*
X19007Y122047D01*
X19968Y121649D01*
X21000Y121513D01*
X22032Y121649D01*
X22993Y122047D01*
X23819Y122681D01*
X24453Y123507D01*
X24851Y124468D01*
X24987Y125500D01*
X24851Y126532D01*
X24453Y127493D01*
X23819Y128319D01*
X22993Y128953D01*
X22219Y129273D01*
X20374Y131118D01*
X20596Y131566D01*
X21000Y131513D01*
X22032Y131649D01*
X22806Y131970D01*
X38500D01*
X39414Y132090D01*
X40265Y132443D01*
X40996Y133004D01*
X59462Y151470D01*
X104211D01*
X106063Y149618D01*
Y113437D01*
X106563D01*
Y113063D01*
X106563D01*
Y68937D01*
X144783D01*
Y105118D01*
X149496Y109830D01*
X150057Y110562D01*
X150410Y111413D01*
X150530Y112327D01*
Y159500D01*
X150410Y160414D01*
X150057Y161265D01*
X149496Y161996D01*
X147996Y163496D01*
X147305Y164026D01*
X147466Y164500D01*
X157000D01*
Y0D01*
D02*
G37*
%LPC*%
G36*
X126342Y40337D02*
Y38500D01*
X128180D01*
X128037Y38844D01*
X127451Y39608D01*
X126687Y40195D01*
X126342Y40337D01*
D02*
G37*
G36*
X19000Y50000D02*
X17482D01*
X17563Y49804D01*
X18102Y49102D01*
X18804Y48563D01*
X19000Y48482D01*
Y50000D01*
D02*
G37*
G36*
X123343Y40337D02*
X122998Y40195D01*
X122234Y39608D01*
X121648Y38844D01*
X121505Y38500D01*
X123343D01*
Y40337D01*
D02*
G37*
G36*
Y35500D02*
X121505D01*
X121648Y35155D01*
X122234Y34391D01*
X122998Y33805D01*
X123343Y33663D01*
Y35500D01*
D02*
G37*
G36*
X128180D02*
X126342D01*
Y33663D01*
X126687Y33805D01*
X127451Y34391D01*
X128037Y35155D01*
X128180Y35500D01*
D02*
G37*
G36*
X80000Y77288D02*
X79019Y77159D01*
X78106Y76781D01*
X77321Y76179D01*
X76719Y75394D01*
X76341Y74480D01*
X76212Y73500D01*
X76341Y72519D01*
X76719Y71606D01*
X77321Y70821D01*
X78106Y70219D01*
X79019Y69841D01*
X80000Y69712D01*
X80799Y69817D01*
X83561Y67055D01*
Y59100D01*
X81600D01*
Y52537D01*
X81138Y52346D01*
X79501Y53983D01*
X79635Y55000D01*
X79497Y56044D01*
X79094Y57017D01*
X78453Y57853D01*
X77617Y58494D01*
X76644Y58897D01*
X75600Y59035D01*
X74583Y58901D01*
X72039Y61445D01*
Y70331D01*
X72679Y70821D01*
X73281Y71606D01*
X73659Y72519D01*
X73788Y73500D01*
X73659Y74480D01*
X73281Y75394D01*
X72679Y76179D01*
X71894Y76781D01*
X70981Y77159D01*
X70000Y77288D01*
X69020Y77159D01*
X68106Y76781D01*
X67321Y76179D01*
X66719Y75394D01*
X66341Y74480D01*
X66212Y73500D01*
X66341Y72519D01*
X66719Y71606D01*
X67321Y70821D01*
X67961Y70331D01*
Y66937D01*
X67487Y66777D01*
X67179Y67179D01*
X66394Y67781D01*
X65481Y68159D01*
X64500Y68288D01*
X63701Y68183D01*
X62039Y69845D01*
Y70331D01*
X62679Y70821D01*
X63281Y71606D01*
X63659Y72519D01*
X63788Y73500D01*
X63659Y74480D01*
X63281Y75394D01*
X62679Y76179D01*
X61894Y76781D01*
X60980Y77159D01*
X60000Y77288D01*
X59020Y77159D01*
X58106Y76781D01*
X57321Y76179D01*
X56719Y75394D01*
X56341Y74480D01*
X56212Y73500D01*
X56341Y72519D01*
X56719Y71606D01*
X57321Y70821D01*
X57961Y70331D01*
Y69000D01*
X58116Y68220D01*
X58558Y67558D01*
X60817Y65299D01*
X60712Y64500D01*
X60841Y63520D01*
X61219Y62606D01*
X61821Y61821D01*
X62606Y61219D01*
X63520Y60841D01*
X63661Y60822D01*
Y58477D01*
X62847Y57853D01*
X62206Y57017D01*
X61803Y56044D01*
X61665Y55000D01*
X61803Y53956D01*
X62206Y52983D01*
X62847Y52147D01*
X63683Y51506D01*
X64656Y51103D01*
X65700Y50965D01*
X66744Y51103D01*
X67717Y51506D01*
X68553Y52147D01*
X69194Y52983D01*
X69597Y53956D01*
X69735Y55000D01*
X69597Y56044D01*
X69194Y57017D01*
X68553Y57853D01*
X67739Y58477D01*
Y59522D01*
X68218Y59668D01*
X68558Y59158D01*
X71699Y56017D01*
X71566Y55000D01*
X71703Y53956D01*
X72106Y52983D01*
X72747Y52147D01*
X73583Y51506D01*
X74556Y51103D01*
X75600Y50965D01*
X76617Y51099D01*
X79058Y48658D01*
X79720Y48216D01*
X80500Y48061D01*
X80500Y48061D01*
X82442D01*
X82663Y47612D01*
X82206Y47017D01*
X81803Y46044D01*
X81665Y45000D01*
X81803Y43956D01*
X82206Y42983D01*
X82847Y42147D01*
X83683Y41506D01*
X84656Y41103D01*
X85700Y40966D01*
X86717Y41099D01*
X91298Y36518D01*
X91265Y36019D01*
X90821Y35679D01*
X90330Y35039D01*
X60226D01*
X59446Y34884D01*
X58784Y34442D01*
X57694Y33352D01*
X57427Y33443D01*
X57314Y33930D01*
X61445Y38061D01*
X67471D01*
X68252Y38216D01*
X68913Y38658D01*
X72423Y42168D01*
X72747Y42147D01*
X73583Y41506D01*
X74556Y41103D01*
X75600Y40966D01*
X76644Y41103D01*
X77617Y41506D01*
X78453Y42147D01*
X79094Y42983D01*
X79497Y43956D01*
X79635Y45000D01*
X79497Y46044D01*
X79094Y47017D01*
X78453Y47853D01*
X77617Y48494D01*
X76644Y48897D01*
X75600Y49035D01*
X74556Y48897D01*
X73583Y48494D01*
X72747Y47853D01*
X72106Y47017D01*
X72092Y46984D01*
X71591Y46884D01*
X70929Y46442D01*
X69852Y45365D01*
X69379Y45526D01*
X69297Y46144D01*
X68894Y47117D01*
X68253Y47953D01*
X67417Y48594D01*
X66444Y48997D01*
X65400Y49135D01*
X64356Y48997D01*
X63383Y48594D01*
X62547Y47953D01*
X61906Y47117D01*
X61503Y46144D01*
X61365Y45100D01*
X61503Y44056D01*
X61906Y43083D01*
X62286Y42588D01*
X62065Y42139D01*
X60600D01*
X59820Y41984D01*
X59158Y41542D01*
X54299Y36683D01*
X53500Y36788D01*
X52520Y36659D01*
X51606Y36281D01*
X50821Y35679D01*
X50219Y34894D01*
X49841Y33981D01*
X49712Y33000D01*
X49841Y32019D01*
X50219Y31106D01*
X50506Y30732D01*
X50285Y30283D01*
X48215D01*
X47994Y30732D01*
X48281Y31106D01*
X48659Y32019D01*
X48788Y33000D01*
X48659Y33981D01*
X48281Y34894D01*
X47679Y35679D01*
X46894Y36281D01*
X45981Y36659D01*
X45000Y36788D01*
X44019Y36659D01*
X43106Y36281D01*
X42321Y35679D01*
X41719Y34894D01*
X41341Y33981D01*
X41279Y33513D01*
X40806Y33352D01*
X39716Y34442D01*
X39055Y34884D01*
X38274Y35039D01*
X8169D01*
X7679Y35679D01*
X6894Y36281D01*
X5980Y36659D01*
X5000Y36788D01*
X4019Y36659D01*
X3106Y36281D01*
X2321Y35679D01*
X1719Y34894D01*
X1341Y33981D01*
X1212Y33000D01*
X1341Y32019D01*
X1719Y31106D01*
X2321Y30321D01*
X3106Y29719D01*
X4019Y29341D01*
X5000Y29212D01*
X5980Y29341D01*
X6894Y29719D01*
X7679Y30321D01*
X8169Y30961D01*
X37429D01*
X41588Y26802D01*
X42250Y26360D01*
X43030Y26205D01*
X55470D01*
X56250Y26360D01*
X56912Y26802D01*
X61071Y30961D01*
X90330D01*
X90821Y30321D01*
X91606Y29719D01*
X92519Y29341D01*
X93500Y29212D01*
X94481Y29341D01*
X95394Y29719D01*
X96179Y30321D01*
X96670Y30961D01*
X99657D01*
X100438Y31116D01*
X101099Y31558D01*
X102884Y33342D01*
X105931D01*
X118500Y20774D01*
Y19163D01*
X118407Y19125D01*
X117541Y18460D01*
X116875Y17593D01*
X116457Y16583D01*
X116315Y15500D01*
X116457Y14417D01*
X116875Y13407D01*
X117541Y12540D01*
X118407Y11875D01*
X119417Y11457D01*
X120500Y11315D01*
X121583Y11457D01*
X122593Y11875D01*
X123459Y12540D01*
X124125Y13407D01*
X124543Y14417D01*
X124685Y15500D01*
X124543Y16583D01*
X124125Y17593D01*
X123459Y18460D01*
X122593Y19125D01*
X122578Y19131D01*
Y21618D01*
X122423Y22399D01*
X121981Y23060D01*
X108815Y36226D01*
Y36431D01*
X128000Y55616D01*
X130808Y52808D01*
X131470Y52366D01*
X132250Y52211D01*
X140316D01*
X140341Y52020D01*
X140719Y51106D01*
X141321Y50321D01*
X142106Y49719D01*
X143019Y49341D01*
X144000Y49212D01*
X144981Y49341D01*
X145894Y49719D01*
X146679Y50321D01*
X147281Y51106D01*
X147659Y52020D01*
X147788Y53000D01*
X147659Y53980D01*
X147281Y54894D01*
X146679Y55679D01*
X145894Y56281D01*
X144981Y56659D01*
X144000Y56788D01*
X143019Y56659D01*
X142126Y56289D01*
X133095D01*
X129442Y59942D01*
X123442Y65942D01*
X122780Y66384D01*
X122000Y66539D01*
X107669D01*
X107179Y67179D01*
X106394Y67781D01*
X105481Y68159D01*
X104500Y68288D01*
X103519Y68159D01*
X102606Y67781D01*
X101821Y67179D01*
X101219Y66394D01*
X100841Y65481D01*
X100712Y64500D01*
X100841Y63520D01*
X101219Y62606D01*
X101821Y61821D01*
X102606Y61219D01*
X103519Y60841D01*
X104500Y60712D01*
X105481Y60841D01*
X106394Y61219D01*
X107179Y61821D01*
X107669Y62461D01*
X121155D01*
X125116Y58500D01*
X107274Y40657D01*
X101500D01*
Y37726D01*
X98813Y35039D01*
X96670D01*
X96179Y35679D01*
X95539Y36169D01*
Y37200D01*
X95539Y37200D01*
X95384Y37980D01*
X94942Y38642D01*
X94942Y38642D01*
X89601Y43983D01*
X89735Y45000D01*
X89597Y46044D01*
X89194Y47017D01*
X88737Y47612D01*
X88959Y48061D01*
X89429D01*
X90209Y48216D01*
X90870Y48658D01*
X92673Y50461D01*
X101214D01*
X101321Y50321D01*
X102106Y49719D01*
X103019Y49341D01*
X104000Y49212D01*
X104981Y49341D01*
X105894Y49719D01*
X106679Y50321D01*
X107281Y51106D01*
X107659Y52020D01*
X107788Y53000D01*
X107659Y53980D01*
X107281Y54894D01*
X106679Y55679D01*
X105894Y56281D01*
X104981Y56659D01*
X104000Y56788D01*
X103019Y56659D01*
X102106Y56281D01*
X101321Y55679D01*
X100719Y54894D01*
X100572Y54539D01*
X91828D01*
X91048Y54384D01*
X90386Y53942D01*
X90062Y53617D01*
X89600Y53809D01*
Y59100D01*
X87639D01*
Y67900D01*
X87639Y67900D01*
X87484Y68680D01*
X87042Y69342D01*
X83683Y72701D01*
X83788Y73500D01*
X83659Y74480D01*
X83281Y75394D01*
X82679Y76179D01*
X81894Y76781D01*
X80980Y77159D01*
X80000Y77288D01*
D02*
G37*
G36*
X19000Y54518D02*
X18804Y54437D01*
X18102Y53898D01*
X17563Y53196D01*
X17482Y53000D01*
X19000D01*
Y54518D01*
D02*
G37*
G36*
X59408Y53500D02*
X57200D01*
Y51292D01*
X57717Y51506D01*
X58553Y52147D01*
X59194Y52983D01*
X59408Y53500D01*
D02*
G37*
G36*
X23518Y50000D02*
X22000D01*
Y48482D01*
X22196Y48563D01*
X22898Y49102D01*
X23437Y49804D01*
X23518Y50000D01*
D02*
G37*
G36*
X50000Y75788D02*
X49020Y75659D01*
X48106Y75281D01*
X47321Y74679D01*
X46719Y73894D01*
X46341Y72980D01*
X46212Y72000D01*
X46341Y71020D01*
X46719Y70106D01*
X47321Y69321D01*
X47961Y68831D01*
Y50800D01*
X48116Y50020D01*
X48558Y49358D01*
X51799Y46117D01*
X51666Y45100D01*
X51803Y44056D01*
X52206Y43083D01*
X52847Y42247D01*
X53683Y41606D01*
X54656Y41203D01*
X55700Y41065D01*
X56744Y41203D01*
X57717Y41606D01*
X58553Y42247D01*
X59194Y43083D01*
X59597Y44056D01*
X59735Y45100D01*
X59597Y46144D01*
X59194Y47117D01*
X58553Y47953D01*
X57717Y48594D01*
X56744Y48997D01*
X55700Y49135D01*
X54683Y49001D01*
X52039Y51645D01*
Y52422D01*
X52513Y52583D01*
X52847Y52147D01*
X53683Y51506D01*
X54200Y51292D01*
Y55000D01*
Y58708D01*
X53683Y58494D01*
X52847Y57853D01*
X52513Y57417D01*
X52039Y57578D01*
Y68831D01*
X52679Y69321D01*
X53281Y70106D01*
X53659Y71020D01*
X53788Y72000D01*
X53659Y72980D01*
X53281Y73894D01*
X52679Y74679D01*
X51894Y75281D01*
X50981Y75659D01*
X50000Y75788D01*
D02*
G37*
G36*
X109000Y14000D02*
X106350D01*
Y11350D01*
X109000D01*
Y14000D01*
D02*
G37*
G36*
X114650D02*
X112000D01*
Y11350D01*
X114650D01*
Y14000D01*
D02*
G37*
G36*
X79500Y25529D02*
X42342D01*
X41166Y25413D01*
X40035Y25070D01*
X38993Y24513D01*
X38079Y23763D01*
X35579Y21263D01*
X34830Y20349D01*
X34272Y19307D01*
X33929Y18176D01*
X33814Y17000D01*
X33929Y15824D01*
X34272Y14693D01*
X34830Y13650D01*
X35579Y12737D01*
X36493Y11987D01*
X37535Y11430D01*
X38666Y11087D01*
X39843Y10971D01*
X41019Y11087D01*
X42150Y11430D01*
X43192Y11987D01*
X44106Y12737D01*
X44840Y13471D01*
X75971D01*
Y10971D01*
X75953Y10953D01*
X75617Y10953D01*
X75617Y10953D01*
Y10953D01*
X73500D01*
Y7000D01*
Y3047D01*
X75953D01*
Y4548D01*
X76114Y4597D01*
X76438Y4678D01*
X76987Y3650D01*
X77737Y2737D01*
X78650Y1987D01*
X79693Y1430D01*
X80824Y1087D01*
X82000Y971D01*
X83176Y1087D01*
X84307Y1430D01*
X85350Y1987D01*
X86263Y2737D01*
X87013Y3650D01*
X87570Y4693D01*
X87574Y4706D01*
X122744D01*
X123622Y4881D01*
X124366Y5378D01*
X130122Y11134D01*
X130264Y11346D01*
X130500Y11315D01*
X131583Y11457D01*
X132593Y11875D01*
X133459Y12540D01*
X134125Y13407D01*
X134543Y14417D01*
X134685Y15500D01*
X134543Y16583D01*
X134125Y17593D01*
X133459Y18460D01*
X132593Y19125D01*
X131583Y19543D01*
X130500Y19685D01*
X129417Y19543D01*
X128407Y19125D01*
X127541Y18460D01*
X126919Y17650D01*
X126878Y17622D01*
X126381Y16878D01*
X126206Y16000D01*
Y13706D01*
X121794Y9294D01*
X88029D01*
Y17000D01*
X87913Y18176D01*
X87570Y19307D01*
X87013Y20349D01*
X86263Y21263D01*
X83763Y23763D01*
X82850Y24513D01*
X81807Y25070D01*
X80676Y25413D01*
X79500Y25529D01*
D02*
G37*
G36*
X70500Y5500D02*
X68047D01*
Y3047D01*
X70500D01*
Y5500D01*
D02*
G37*
G36*
Y10953D02*
X68047D01*
Y8500D01*
X70500D01*
Y10953D01*
D02*
G37*
G36*
X18657Y15500D02*
X16820D01*
X16963Y15156D01*
X17549Y14391D01*
X18313Y13805D01*
X18657Y13663D01*
Y15500D01*
D02*
G37*
G36*
Y20337D02*
X18313Y20195D01*
X17549Y19609D01*
X16963Y18845D01*
X16820Y18500D01*
X18657D01*
Y20337D01*
D02*
G37*
G36*
X21657D02*
Y18500D01*
X23495D01*
X23352Y18845D01*
X22766Y19609D01*
X22002Y20195D01*
X21657Y20337D01*
D02*
G37*
G36*
X114650Y19650D02*
X112000D01*
Y17000D01*
X114650D01*
Y19650D01*
D02*
G37*
G36*
X23495Y15500D02*
X21657D01*
Y13663D01*
X22002Y13805D01*
X22766Y14391D01*
X23352Y15156D01*
X23495Y15500D01*
D02*
G37*
G36*
X109000Y19650D02*
X106350D01*
Y17000D01*
X109000D01*
Y19650D01*
D02*
G37*
G36*
X22000Y54518D02*
Y53000D01*
X23518D01*
X23437Y53196D01*
X22898Y53898D01*
X22196Y54437D01*
X22000Y54518D01*
D02*
G37*
G36*
X93500Y120667D02*
Y119000D01*
X95167D01*
X95057Y119265D01*
X94496Y119996D01*
X93765Y120557D01*
X93500Y120667D01*
D02*
G37*
G36*
X90531Y124000D02*
X85716D01*
Y122335D01*
X90531D01*
Y124000D01*
D02*
G37*
G36*
X90500Y120667D02*
X90235Y120557D01*
X89504Y119996D01*
X88943Y119265D01*
X88833Y119000D01*
X90500D01*
Y120667D01*
D02*
G37*
G36*
Y116000D02*
X88833D01*
X88943Y115735D01*
X89504Y115004D01*
X90235Y114443D01*
X90500Y114333D01*
Y116000D01*
D02*
G37*
G36*
X95167D02*
X93500D01*
Y114333D01*
X93765Y114443D01*
X94496Y115004D01*
X95057Y115735D01*
X95167Y116000D01*
D02*
G37*
G36*
X24953Y149453D02*
X17047D01*
Y141547D01*
X24953D01*
Y149453D01*
D02*
G37*
G36*
X98347Y148665D02*
X85716D01*
Y147539D01*
X79500D01*
X78720Y147384D01*
X78058Y146942D01*
X68558Y137442D01*
X68116Y136780D01*
X67961Y136000D01*
Y116669D01*
X67321Y116179D01*
X66719Y115394D01*
X66341Y114480D01*
X66212Y113500D01*
X66341Y112520D01*
X66719Y111606D01*
X67321Y110821D01*
X68106Y110219D01*
X69020Y109841D01*
X70000Y109712D01*
X70981Y109841D01*
X71894Y110219D01*
X72679Y110821D01*
X73281Y111606D01*
X73659Y112520D01*
X73788Y113500D01*
X73659Y114480D01*
X73281Y115394D01*
X72679Y116179D01*
X72039Y116669D01*
Y135155D01*
X80345Y143461D01*
X85716D01*
Y142335D01*
X98347D01*
Y148665D01*
D02*
G37*
G36*
Y128665D02*
X93532D01*
Y127000D01*
X98347D01*
Y128665D01*
D02*
G37*
G36*
Y124000D02*
X93532D01*
Y122335D01*
X98347D01*
Y124000D01*
D02*
G37*
G36*
X90531Y128665D02*
X85716D01*
Y127000D01*
X90531D01*
Y128665D01*
D02*
G37*
G36*
X60000Y117288D02*
X59020Y117159D01*
X58106Y116781D01*
X57321Y116179D01*
X56719Y115394D01*
X56341Y114480D01*
X56212Y113500D01*
X56341Y112520D01*
X56719Y111606D01*
X57321Y110821D01*
X58106Y110219D01*
X59020Y109841D01*
X60000Y109712D01*
X60980Y109841D01*
X61894Y110219D01*
X62679Y110821D01*
X63281Y111606D01*
X63659Y112520D01*
X63788Y113500D01*
X63659Y114480D01*
X63281Y115394D01*
X62679Y116179D01*
X61894Y116781D01*
X60980Y117159D01*
X60000Y117288D01*
D02*
G37*
G36*
X94500Y77030D02*
X93586Y76910D01*
X92735Y76557D01*
X92004Y75996D01*
X91443Y75265D01*
X91333Y75000D01*
X97667D01*
X97557Y75265D01*
X96996Y75996D01*
X96265Y76557D01*
X95414Y76910D01*
X94500Y77030D01*
D02*
G37*
G36*
X21000Y119487D02*
X19968Y119351D01*
X19007Y118953D01*
X18181Y118319D01*
X17547Y117493D01*
X17149Y116532D01*
X17013Y115500D01*
X17149Y114468D01*
X17547Y113507D01*
X18181Y112681D01*
X19007Y112047D01*
X19550Y111822D01*
X19526Y111323D01*
X18693Y111070D01*
X17650Y110513D01*
X16737Y109763D01*
X15987Y108850D01*
X15430Y107807D01*
X15087Y106676D01*
X14971Y105500D01*
Y89384D01*
X14930Y89307D01*
X14587Y88176D01*
X14471Y87000D01*
Y81500D01*
X14587Y80324D01*
X14930Y79193D01*
X15487Y78150D01*
X16237Y77237D01*
X17151Y76487D01*
X18193Y75930D01*
X19324Y75587D01*
X20500Y75471D01*
X21676Y75587D01*
X22807Y75930D01*
X23850Y76487D01*
X24763Y77237D01*
X25513Y78150D01*
X26070Y79193D01*
X26413Y80324D01*
X26529Y81500D01*
Y85116D01*
X26570Y85193D01*
X26913Y86324D01*
X27029Y87500D01*
Y105500D01*
X26913Y106676D01*
X26570Y107807D01*
X26013Y108850D01*
X25263Y109763D01*
X24350Y110513D01*
X23307Y111070D01*
X22474Y111323D01*
X22450Y111822D01*
X22993Y112047D01*
X23819Y112681D01*
X24453Y113507D01*
X24851Y114468D01*
X24987Y115500D01*
X24851Y116532D01*
X24453Y117493D01*
X23819Y118319D01*
X22993Y118953D01*
X22032Y119351D01*
X21000Y119487D01*
D02*
G37*
G36*
X97667Y72000D02*
X96000D01*
Y70333D01*
X96265Y70443D01*
X96996Y71004D01*
X97557Y71735D01*
X97667Y72000D01*
D02*
G37*
G36*
X57200Y58708D02*
Y56500D01*
X59408D01*
X59194Y57017D01*
X58553Y57853D01*
X57717Y58494D01*
X57200Y58708D01*
D02*
G37*
G36*
X93000Y72000D02*
X91333D01*
X91443Y71735D01*
X92004Y71004D01*
X92735Y70443D01*
X93000Y70333D01*
Y72000D01*
D02*
G37*
G36*
X98847Y84165D02*
X94032D01*
Y82500D01*
X98847D01*
Y84165D01*
D02*
G37*
G36*
X80000Y117288D02*
X79019Y117159D01*
X78106Y116781D01*
X77321Y116179D01*
X76719Y115394D01*
X76341Y114480D01*
X76212Y113500D01*
X76341Y112520D01*
X76719Y111606D01*
X77321Y110821D01*
X77961Y110330D01*
Y103500D01*
X78116Y102720D01*
X78558Y102058D01*
X81058Y99558D01*
X81720Y99116D01*
X82500Y98961D01*
X86216D01*
Y97835D01*
X98847D01*
Y104165D01*
X86216D01*
Y103039D01*
X83345D01*
X82039Y104345D01*
Y110330D01*
X82679Y110821D01*
X83281Y111606D01*
X83659Y112520D01*
X83788Y113500D01*
X83659Y114480D01*
X83281Y115394D01*
X82679Y116179D01*
X81894Y116781D01*
X80980Y117159D01*
X80000Y117288D01*
D02*
G37*
G36*
X91031Y84165D02*
X86216D01*
Y82500D01*
X91031D01*
Y84165D01*
D02*
G37*
G36*
X98847Y79500D02*
X86216D01*
Y77835D01*
X98847D01*
Y79500D01*
D02*
G37*
G36*
X50000Y115788D02*
X49020Y115659D01*
X48106Y115281D01*
X47321Y114679D01*
X46719Y113894D01*
X46341Y112980D01*
X46212Y112000D01*
X46341Y111020D01*
X46719Y110106D01*
X47321Y109321D01*
X48106Y108719D01*
X49020Y108341D01*
X50000Y108212D01*
X50799Y108317D01*
X76133Y82984D01*
X76443Y82235D01*
X77004Y81504D01*
X77735Y80943D01*
X78586Y80590D01*
X79500Y80470D01*
X80414Y80590D01*
X81265Y80943D01*
X81996Y81504D01*
X82557Y82235D01*
X82910Y83086D01*
X83030Y84000D01*
X82910Y84914D01*
X82557Y85765D01*
X81996Y86496D01*
X81265Y87057D01*
X80414Y87410D01*
X79500Y87530D01*
X78586Y87410D01*
X77800Y87084D01*
X53683Y111201D01*
X53788Y112000D01*
X53659Y112980D01*
X53281Y113894D01*
X52679Y114679D01*
X51894Y115281D01*
X50981Y115659D01*
X50000Y115788D01*
D02*
G37*
%LPD*%
D10*
X125173Y135500D02*
D03*
X125673Y91000D02*
D03*
D11*
X92032Y125500D02*
D03*
Y145500D02*
D03*
X92532Y81000D02*
D03*
Y101000D02*
D03*
D12*
X105157Y37000D02*
X120539Y21618D01*
Y18039D02*
Y21618D01*
X118500Y16000D02*
X120539Y18039D01*
X99657Y33000D02*
X105157Y38500D01*
X128000Y58500D02*
X132250Y54250D01*
X122000Y64500D02*
X128000Y58500D01*
X105157Y37000D02*
Y38500D01*
X106500Y37000D02*
X128000Y58500D01*
X105157Y37000D02*
X106500D01*
X103500Y52500D02*
X104000Y53000D01*
X142750Y54250D02*
X144000Y53000D01*
X132250Y54250D02*
X142750D01*
X85700Y45000D02*
X93500Y37200D01*
Y33000D02*
Y37200D01*
X104500Y64500D02*
X122000D01*
X60226Y33000D02*
X93500D01*
X55470Y28244D02*
X60226Y33000D01*
X43030Y28244D02*
X55470D01*
X38274Y33000D02*
X43030Y28244D01*
X5000Y33000D02*
X38274D01*
X93500D02*
X99657D01*
X53500D02*
X60600Y40100D01*
X67471D01*
X72371Y45000D01*
X75600D01*
X80000Y73500D02*
X85600Y67900D01*
Y55100D02*
Y67900D01*
X70000Y60600D02*
X75600Y55000D01*
X70000Y60600D02*
Y73500D01*
X64500Y64500D02*
X65700Y63300D01*
X60000Y69000D02*
X64500Y64500D01*
X60000Y69000D02*
Y73500D01*
X65700Y55000D02*
Y63300D01*
X91828Y52500D02*
X103500D01*
X80500Y50100D02*
X89429D01*
X75600Y55000D02*
X80500Y50100D01*
X89429D02*
X91828Y52500D01*
X50000Y112000D02*
X78000Y84000D01*
X79500D01*
X80000Y103500D02*
Y113500D01*
Y103500D02*
X82500Y101000D01*
X92532D01*
X70000Y113500D02*
Y136000D01*
X79500Y145500D01*
X92032D01*
X65400Y45100D02*
X65500Y45000D01*
X75600D02*
X77000Y43600D01*
X84500Y43800D02*
X85700Y45000D01*
X50000Y50800D02*
Y72000D01*
Y50800D02*
X55700Y45100D01*
D13*
X128500Y12756D02*
Y16000D01*
X122744Y7000D02*
X128500Y12756D01*
X82000Y7000D02*
X122744D01*
D14*
X94500Y73500D02*
Y79031D01*
X92532Y81000D02*
X94500Y79031D01*
X92500Y81032D02*
X92532Y81000D01*
X92000Y117500D02*
X92032Y117532D01*
Y125500D01*
D15*
X21000Y87500D02*
Y105500D01*
X20500Y81500D02*
Y87000D01*
X39843Y17000D02*
X42342Y19500D01*
X79500D01*
X82000Y17000D01*
Y7000D02*
Y17000D01*
D16*
X12000Y134500D02*
X21000Y125500D01*
X12000Y134500D02*
Y151000D01*
X22000Y161000D01*
X145500D01*
X147000Y159500D01*
Y112327D02*
Y159500D01*
X125673Y91000D02*
X147000Y112327D01*
X21000Y135500D02*
X38500D01*
X58000Y155000D01*
X105673D01*
X125173Y135500D01*
D17*
X65700Y55000D02*
X66000Y55300D01*
D18*
X110500Y15500D02*
D03*
D19*
X120500D02*
D03*
X130500D02*
D03*
D20*
X20500Y81500D02*
D03*
Y51500D02*
D03*
D21*
X20157Y17000D02*
D03*
X124843Y37000D02*
D03*
D22*
X39843Y17000D02*
D03*
X105157Y37000D02*
D03*
D23*
X55700Y55000D02*
D03*
Y45100D02*
D03*
X65700Y55000D02*
D03*
X65400Y45100D02*
D03*
X75600Y55000D02*
D03*
Y45000D02*
D03*
X85700D02*
D03*
D24*
X85600Y55100D02*
D03*
D25*
X60000Y73500D02*
D03*
Y113500D02*
D03*
X70000Y73500D02*
D03*
Y113500D02*
D03*
X80000Y73500D02*
D03*
Y113500D02*
D03*
X50000Y72000D02*
D03*
Y112000D02*
D03*
X45000Y33000D02*
D03*
X5000D02*
D03*
X53500D02*
D03*
X93500D02*
D03*
X64500Y64500D02*
D03*
X104500D02*
D03*
X104000Y53000D02*
D03*
X144000D02*
D03*
D26*
X21000Y145500D02*
D03*
D27*
Y135500D02*
D03*
Y125500D02*
D03*
Y115500D02*
D03*
Y105500D02*
D03*
X82000Y7000D02*
D03*
D28*
X72000D02*
D03*
D29*
X79500Y84000D02*
D03*
X94500Y73500D02*
D03*
X92000Y117500D02*
D03*
M02*
