%FSLAX25Y25*%
%MOIN*%
G70*
G01*
G75*
G04 Layer_Color=8421504*
%ADD10R,0.05512X0.04331*%
%ADD11R,0.04331X0.10630*%
%ADD12R,0.42126X0.36221*%
%ADD13R,0.04331X0.05512*%
%ADD14C,0.01200*%
%ADD15C,0.07500*%
%ADD16C,0.10000*%
%ADD17C,0.05000*%
%ADD18C,0.02000*%
%ADD19C,0.02500*%
%ADD20C,0.06000*%
%ADD21R,0.06000X0.06000*%
%ADD22R,0.05906X0.05906*%
%ADD23C,0.05906*%
%ADD24C,0.04724*%
%ADD25C,0.05315*%
%ADD26R,0.05315X0.05315*%
%ADD27R,0.06299X0.06299*%
%ADD28C,0.06299*%
%ADD29R,0.05315X0.05315*%
%ADD30C,0.05000*%
%ADD31C,0.02500*%
%ADD32C,0.00984*%
%ADD33C,0.00787*%
%ADD34C,0.00050*%
%ADD35C,0.01000*%
%ADD36C,0.00591*%
D10*
X148500Y77453D02*
D03*
Y71547D02*
D03*
X5000Y103953D02*
D03*
Y98047D02*
D03*
X114000Y103453D02*
D03*
Y97547D02*
D03*
D11*
X141500Y74468D02*
D03*
X121500D02*
D03*
X121000Y101031D02*
D03*
X141000D02*
D03*
X12000D02*
D03*
X32000D02*
D03*
D12*
X131500Y41327D02*
D03*
X131000Y134173D02*
D03*
X22000D02*
D03*
D13*
X67547Y68500D02*
D03*
X73453D02*
D03*
X85953Y68500D02*
D03*
X80047D02*
D03*
X99953D02*
D03*
X94047D02*
D03*
M02*
