%FSLAX25Y25*%
%MOIN*%
G70*
G01*
G75*
%ADD10R,0.36221X0.42126*%
%ADD11R,0.10630X0.04331*%
%ADD12C,0.02000*%
%ADD13C,0.02500*%
%ADD14C,0.03937*%
%ADD15C,0.10000*%
%ADD16C,0.05000*%
%ADD17C,0.01000*%
%ADD18R,0.06299X0.06299*%
%ADD19C,0.06299*%
%ADD20C,0.04724*%
%ADD21C,0.05315*%
%ADD22R,0.05315X0.05315*%
%ADD23C,0.06000*%
%ADD24R,0.06000X0.06000*%
%ADD25C,0.05512*%
%ADD26R,0.05906X0.05906*%
%ADD27C,0.05906*%
%ADD28R,0.05906X0.05906*%
%ADD29C,0.05000*%
%ADD30C,0.00787*%
%ADD31C,0.00984*%
%ADD32C,0.00050*%
%ADD33C,0.00591*%
%ADD34R,0.37021X0.42926*%
%ADD35R,0.11430X0.05131*%
%ADD36R,0.07099X0.07099*%
%ADD37C,0.07099*%
%ADD38C,0.05524*%
%ADD39C,0.06115*%
%ADD40R,0.06115X0.06115*%
%ADD41C,0.06800*%
%ADD42R,0.06800X0.06800*%
%ADD43C,0.06312*%
%ADD44R,0.06706X0.06706*%
%ADD45C,0.06706*%
%ADD46R,0.06706X0.06706*%
%ADD47C,0.05800*%
%ADD48C,0.00500*%
%ADD49C,0.00667*%
D48*
X108531Y15500D02*
X112469D01*
X110500Y13532D02*
Y17469D01*
X118532Y15500D02*
X122468D01*
X120500Y13532D02*
Y17469D01*
X128532Y15500D02*
X132468D01*
X130500Y13532D02*
Y17469D01*
X19122Y81500D02*
X21878D01*
X20500Y80122D02*
Y82878D01*
X19122Y51500D02*
X21878D01*
X20500Y50122D02*
Y52878D01*
X18583Y17000D02*
X21732D01*
X20157Y15425D02*
Y18575D01*
X38268Y17000D02*
X41417D01*
X39843Y15425D02*
Y18575D01*
X54200Y55000D02*
X57200D01*
X55700Y53500D02*
Y56500D01*
X54200Y45100D02*
X57200D01*
X55700Y43600D02*
Y46600D01*
X64200Y55000D02*
X67200D01*
X65700Y53500D02*
Y56500D01*
X63900Y45100D02*
X66900D01*
X65400Y43600D02*
Y46600D01*
X74100Y55000D02*
X77100D01*
X75600Y53500D02*
Y56500D01*
X74100Y45000D02*
X77100D01*
X75600Y43500D02*
Y46500D01*
X84100Y55100D02*
X87100D01*
X85600Y53600D02*
Y56600D01*
X84200Y45000D02*
X87200D01*
X85700Y43500D02*
Y46500D01*
X58327Y73500D02*
X61673D01*
X60000Y71827D02*
Y75173D01*
X58327Y113500D02*
X61673D01*
X60000Y111827D02*
Y115173D01*
X68327Y73500D02*
X71673D01*
X70000Y71827D02*
Y75173D01*
X68327Y113500D02*
X71673D01*
X70000Y111827D02*
Y115173D01*
X78327Y73500D02*
X81673D01*
X80000Y71827D02*
Y75173D01*
X78327Y113500D02*
X81673D01*
X80000Y111827D02*
Y115173D01*
X48327Y72000D02*
X51673D01*
X50000Y70327D02*
Y73673D01*
X48327Y112000D02*
X51673D01*
X50000Y110327D02*
Y113673D01*
X43327Y33000D02*
X46673D01*
X45000Y31327D02*
Y34673D01*
X3327Y33000D02*
X6673D01*
X5000Y31327D02*
Y34673D01*
X51827Y33000D02*
X55173D01*
X53500Y31327D02*
Y34673D01*
X91827Y33000D02*
X95173D01*
X93500Y31327D02*
Y34673D01*
X62827Y64500D02*
X66173D01*
X64500Y62827D02*
Y66173D01*
X102827Y64500D02*
X106173D01*
X104500Y62827D02*
Y66173D01*
X102327Y53000D02*
X105673D01*
X104000Y51327D02*
Y54673D01*
X142327Y53000D02*
X145673D01*
X144000Y51327D02*
Y54673D01*
X19228Y145500D02*
X22772D01*
X21000Y143728D02*
Y147272D01*
X19228Y135500D02*
X22772D01*
X21000Y133728D02*
Y137272D01*
X19228Y125500D02*
X22772D01*
X21000Y123728D02*
Y127272D01*
X19228Y115500D02*
X22772D01*
X21000Y113728D02*
Y117272D01*
X19228Y105500D02*
X22772D01*
X21000Y103728D02*
Y107272D01*
X103583Y37000D02*
X106732D01*
X105157Y35425D02*
Y38575D01*
X123268Y37000D02*
X126417D01*
X124843Y35425D02*
Y38575D01*
X80228Y7000D02*
X83772D01*
X82000Y5228D02*
Y8772D01*
X70228Y7000D02*
X73772D01*
X72000Y5228D02*
Y8772D01*
X78100Y84000D02*
X80900D01*
X79500Y82600D02*
Y85400D01*
X93100Y73500D02*
X95900D01*
X94500Y72100D02*
Y74900D01*
X90600Y117500D02*
X93400D01*
X92000Y116100D02*
Y118900D01*
M02*
