%FSLAX25Y25*%
%MOIN*%
G70*
G01*
G75*
G04 Layer_Physical_Order=2*
G04 Layer_Color=16711680*
%ADD10R,0.05512X0.04331*%
%ADD11R,0.04331X0.10630*%
%ADD12R,0.42126X0.36221*%
%ADD13R,0.04331X0.05512*%
%ADD14C,0.01200*%
%ADD15C,0.07500*%
%ADD16C,0.10000*%
%ADD17C,0.05000*%
%ADD18C,0.02000*%
%ADD19C,0.02500*%
%ADD20C,0.06000*%
%ADD21R,0.06000X0.06000*%
%ADD22R,0.05906X0.05906*%
%ADD23C,0.05906*%
%ADD24C,0.04724*%
%ADD25C,0.05315*%
%ADD26R,0.05315X0.05315*%
%ADD27R,0.06299X0.06299*%
%ADD28C,0.06299*%
%ADD29R,0.05315X0.05315*%
%ADD30C,0.05000*%
%ADD31C,0.02500*%
G36*
X155000Y145467D02*
X154515Y145346D01*
X154513Y145350D01*
X153763Y146263D01*
X148763Y151263D01*
X147850Y152013D01*
X146807Y152570D01*
X145676Y152913D01*
X144500Y153029D01*
X101000D01*
X99824Y152913D01*
X98693Y152570D01*
X97650Y152013D01*
X96737Y151263D01*
X95987Y150349D01*
X95430Y149307D01*
X95177Y148474D01*
X94678Y148450D01*
X94453Y148993D01*
X93819Y149819D01*
X92993Y150453D01*
X92032Y150851D01*
X91000Y150987D01*
X89968Y150851D01*
X89007Y150453D01*
X88181Y149819D01*
X87547Y148993D01*
X87149Y148032D01*
X87013Y147000D01*
X87149Y145968D01*
X87470Y145194D01*
Y128000D01*
X87590Y127086D01*
X87943Y126235D01*
X88504Y125504D01*
X111470Y102538D01*
Y54000D01*
X111590Y53086D01*
X111943Y52235D01*
X112504Y51504D01*
X124504Y39504D01*
X125235Y38943D01*
X126086Y38590D01*
X127000Y38470D01*
X127914Y38590D01*
X128765Y38943D01*
X129496Y39504D01*
X130057Y40235D01*
X130410Y41086D01*
X130530Y42000D01*
X130410Y42914D01*
X130057Y43765D01*
X129496Y44496D01*
X118530Y55462D01*
Y104000D01*
X118530Y104000D01*
X118410Y104914D01*
X118057Y105765D01*
X117496Y106496D01*
X94530Y129462D01*
Y145194D01*
X94530D01*
X94892Y145540D01*
X95177Y145526D01*
X95430Y144693D01*
X95987Y143650D01*
X96737Y142737D01*
X97650Y141987D01*
X98693Y141430D01*
X99824Y141087D01*
X101000Y140971D01*
X142003D01*
X143471Y139503D01*
Y38497D01*
X119003Y14029D01*
X88500D01*
X87324Y13913D01*
X86193Y13570D01*
X85150Y13013D01*
X84237Y12263D01*
X83487Y11350D01*
X82930Y10307D01*
X82767Y9771D01*
X82268Y9747D01*
X82125Y10093D01*
X81459Y10960D01*
X80794Y11470D01*
Y24050D01*
X84622Y27878D01*
X93822Y37078D01*
X94319Y37822D01*
X94494Y38700D01*
Y44718D01*
X95053Y45147D01*
X95694Y45983D01*
X96097Y46956D01*
X96235Y48000D01*
X96097Y49044D01*
X95694Y50017D01*
X95053Y50853D01*
X94217Y51494D01*
X93244Y51897D01*
X92200Y52034D01*
X91156Y51897D01*
X90183Y51494D01*
X89347Y50853D01*
X88706Y50017D01*
X88303Y49044D01*
X88165Y48000D01*
X88303Y46956D01*
X88706Y45983D01*
X89347Y45147D01*
X89906Y44718D01*
Y39650D01*
X83462Y33206D01*
X83000Y33398D01*
Y36158D01*
X75685D01*
Y28842D01*
X78445D01*
X78636Y28381D01*
X76878Y26622D01*
X76381Y25878D01*
X76206Y25000D01*
Y11470D01*
X75541Y10960D01*
X74875Y10093D01*
X74457Y9083D01*
X74315Y8000D01*
X74457Y6917D01*
X74875Y5907D01*
X75541Y5040D01*
X76407Y4375D01*
X77417Y3957D01*
X78500Y3815D01*
X79583Y3957D01*
X80593Y4375D01*
X81459Y5040D01*
X82125Y5907D01*
X82268Y6253D01*
X82767Y6229D01*
X82930Y5693D01*
X83487Y4651D01*
X84237Y3737D01*
X85150Y2987D01*
X86193Y2430D01*
X87324Y2087D01*
X88500Y1971D01*
X121500D01*
X122676Y2087D01*
X123807Y2430D01*
X124849Y2987D01*
X125763Y3737D01*
X153763Y31737D01*
X154513Y32651D01*
X154515Y32654D01*
X155000Y32533D01*
Y0D01*
X0D01*
Y115063D01*
X44063D01*
Y130643D01*
X63673D01*
X64587Y130763D01*
X65438Y131116D01*
X66170Y131677D01*
X73496Y139004D01*
X74057Y139735D01*
X74410Y140586D01*
X74530Y141500D01*
Y145194D01*
X74851Y145968D01*
X74987Y147000D01*
X74851Y148032D01*
X74453Y148993D01*
X73819Y149819D01*
X72993Y150453D01*
X72032Y150851D01*
X71000Y150987D01*
X69968Y150851D01*
X69007Y150453D01*
X68181Y149819D01*
X67547Y148993D01*
X67149Y148032D01*
X67013Y147000D01*
X67149Y145968D01*
X67470Y145194D01*
Y142962D01*
X62211Y137703D01*
X44063D01*
Y153284D01*
X0D01*
Y164500D01*
X155000D01*
Y145467D01*
D02*
G37*
%LPC*%
G36*
X48338Y25343D02*
X46500D01*
Y23505D01*
X46845Y23648D01*
X47609Y24234D01*
X48195Y24998D01*
X48338Y25343D01*
D02*
G37*
G36*
X43500Y30180D02*
X43156Y30037D01*
X42391Y29451D01*
X41805Y28687D01*
X41662Y28343D01*
X43500D01*
Y30180D01*
D02*
G37*
G36*
X72650Y12150D02*
X70000D01*
Y9500D01*
X72650D01*
Y12150D01*
D02*
G37*
G36*
X43500Y25343D02*
X41662D01*
X41805Y24998D01*
X42391Y24234D01*
X43156Y23648D01*
X43500Y23505D01*
Y25343D01*
D02*
G37*
G36*
X46500Y30180D02*
Y28343D01*
X48338D01*
X48195Y28687D01*
X47609Y29451D01*
X46845Y30037D01*
X46500Y30180D01*
D02*
G37*
G36*
X58157Y35838D02*
X57813Y35695D01*
X57049Y35109D01*
X56463Y34345D01*
X56320Y34000D01*
X58157D01*
Y35838D01*
D02*
G37*
G36*
X61158D02*
Y34000D01*
X62995D01*
X62852Y34345D01*
X62266Y35109D01*
X61502Y35695D01*
X61158Y35838D01*
D02*
G37*
G36*
X58157Y31000D02*
X56320D01*
X56463Y30656D01*
X57049Y29891D01*
X57813Y29305D01*
X58157Y29162D01*
Y31000D01*
D02*
G37*
G36*
X62995D02*
X61158D01*
Y29162D01*
X61502Y29305D01*
X62266Y29891D01*
X62852Y30656D01*
X62995Y31000D01*
D02*
G37*
G36*
X22953Y5000D02*
X20500D01*
Y2547D01*
X22953D01*
Y5000D01*
D02*
G37*
G36*
X48658Y10815D02*
X41342D01*
Y3500D01*
X48658D01*
Y10815D01*
D02*
G37*
G36*
X29000Y10487D02*
X27968Y10351D01*
X27007Y9953D01*
X26181Y9319D01*
X25547Y8493D01*
X25149Y7532D01*
X25013Y6500D01*
X25149Y5468D01*
X25547Y4507D01*
X26181Y3681D01*
X27007Y3047D01*
X27968Y2649D01*
X29000Y2513D01*
X30032Y2649D01*
X30993Y3047D01*
X31819Y3681D01*
X32453Y4507D01*
X32851Y5468D01*
X32987Y6500D01*
X32851Y7532D01*
X32453Y8493D01*
X31819Y9319D01*
X30993Y9953D01*
X30032Y10351D01*
X29000Y10487D01*
D02*
G37*
G36*
X17500Y5000D02*
X15047D01*
Y2547D01*
X17500D01*
Y5000D01*
D02*
G37*
G36*
X67000Y6500D02*
X64350D01*
Y3850D01*
X67000D01*
Y6500D01*
D02*
G37*
G36*
X22953Y10453D02*
X20500D01*
Y8000D01*
X22953D01*
Y10453D01*
D02*
G37*
G36*
X67000Y12150D02*
X64350D01*
Y9500D01*
X67000D01*
Y12150D01*
D02*
G37*
G36*
X72650Y6500D02*
X70000D01*
Y3850D01*
X72650D01*
Y6500D01*
D02*
G37*
G36*
X17500Y10453D02*
X15047D01*
Y8000D01*
X17500D01*
Y10453D01*
D02*
G37*
G36*
X19000Y40891D02*
X18122Y40776D01*
X17304Y40437D01*
X16602Y39898D01*
X16063Y39196D01*
X15724Y38378D01*
X15609Y37500D01*
X15724Y36622D01*
X16063Y35804D01*
X16602Y35102D01*
X17304Y34563D01*
X18122Y34224D01*
X19000Y34109D01*
X19878Y34224D01*
X20696Y34563D01*
X21398Y35102D01*
X21937Y35804D01*
X22276Y36622D01*
X22391Y37500D01*
X22276Y38378D01*
X21937Y39196D01*
X21398Y39898D01*
X20696Y40437D01*
X19878Y40776D01*
X19000Y40891D01*
D02*
G37*
G36*
X10500Y99532D02*
X8835D01*
Y94717D01*
X10500D01*
Y99532D01*
D02*
G37*
G36*
X15165D02*
X13500D01*
Y94717D01*
X15165D01*
Y99532D01*
D02*
G37*
G36*
X37000Y88167D02*
X36735Y88057D01*
X36004Y87496D01*
X35443Y86765D01*
X35333Y86500D01*
X37000D01*
Y88167D01*
D02*
G37*
G36*
X40000D02*
Y86500D01*
X41667D01*
X41557Y86765D01*
X40996Y87496D01*
X40265Y88057D01*
X40000Y88167D01*
D02*
G37*
G36*
X106500Y99841D02*
X105622Y99667D01*
X104892Y99179D01*
X89547D01*
X88923Y99054D01*
X88394Y98701D01*
X67984Y78291D01*
X67122Y78119D01*
X66378Y77622D01*
X65881Y76878D01*
X65706Y76000D01*
X65881Y75122D01*
X66378Y74378D01*
X67122Y73881D01*
X68000Y73706D01*
X68878Y73881D01*
X69622Y74378D01*
X70119Y75122D01*
X70291Y75984D01*
X90223Y95916D01*
X104892D01*
X105622Y95428D01*
X106500Y95253D01*
X107378Y95428D01*
X108122Y95925D01*
X108619Y96669D01*
X108794Y97547D01*
X108619Y98425D01*
X108122Y99169D01*
X107378Y99667D01*
X106500Y99841D01*
D02*
G37*
G36*
X81000Y150987D02*
X79968Y150851D01*
X79007Y150453D01*
X78181Y149819D01*
X77547Y148993D01*
X77149Y148032D01*
X77013Y147000D01*
X77149Y145968D01*
X77547Y145007D01*
X78181Y144181D01*
X79007Y143547D01*
X79968Y143149D01*
X81000Y143013D01*
X82032Y143149D01*
X82993Y143547D01*
X83819Y144181D01*
X84453Y145007D01*
X84851Y145968D01*
X84987Y147000D01*
X84851Y148032D01*
X84453Y148993D01*
X83819Y149819D01*
X82993Y150453D01*
X82032Y150851D01*
X81000Y150987D01*
D02*
G37*
G36*
X64953Y150953D02*
X57047D01*
Y143047D01*
X64953D01*
Y150953D01*
D02*
G37*
G36*
X10500Y107346D02*
X8835D01*
Y102532D01*
X10500D01*
Y107346D01*
D02*
G37*
G36*
X15165D02*
X13500D01*
Y102532D01*
X15165D01*
Y107346D01*
D02*
G37*
G36*
X17500Y66000D02*
X15982D01*
X16063Y65804D01*
X16602Y65102D01*
X17304Y64563D01*
X17500Y64482D01*
Y66000D01*
D02*
G37*
G36*
X22018D02*
X20500D01*
Y64482D01*
X20696Y64563D01*
X21398Y65102D01*
X21937Y65804D01*
X22018Y66000D01*
D02*
G37*
G36*
X60700Y61708D02*
X60183Y61494D01*
X59347Y60853D01*
X58706Y60017D01*
X58492Y59500D01*
X60700D01*
Y61708D01*
D02*
G37*
G36*
X63700D02*
Y59500D01*
X65908D01*
X65694Y60017D01*
X65053Y60853D01*
X64217Y61494D01*
X63700Y61708D01*
D02*
G37*
G36*
X35165Y107346D02*
X28835D01*
Y94717D01*
X35165D01*
Y101659D01*
X35744D01*
Y100787D01*
Y94882D01*
X40358D01*
X72808Y62432D01*
X72587Y61984D01*
X72200Y62034D01*
X71156Y61897D01*
X70183Y61494D01*
X69347Y60853D01*
X68706Y60017D01*
X68303Y59044D01*
X68165Y58000D01*
X68303Y56956D01*
X68706Y55983D01*
X69092Y55480D01*
X68871Y55031D01*
X65529D01*
X65308Y55480D01*
X65694Y55983D01*
X65908Y56500D01*
X58492D01*
X58706Y55983D01*
X59092Y55480D01*
X58871Y55031D01*
X57853D01*
X57496Y55496D01*
X56765Y56057D01*
X55914Y56410D01*
X55000Y56530D01*
X54086Y56410D01*
X53235Y56057D01*
X52504Y55496D01*
X51943Y54765D01*
X51590Y53914D01*
X51470Y53000D01*
X51590Y52086D01*
X51943Y51235D01*
X52504Y50504D01*
X53235Y49943D01*
X54086Y49590D01*
X55000Y49470D01*
X55914Y49590D01*
X56765Y49943D01*
X57496Y50504D01*
X58057Y51235D01*
X58278Y51769D01*
X59633D01*
X59793Y51295D01*
X59347Y50953D01*
X58706Y50117D01*
X58303Y49144D01*
X58166Y48100D01*
X58303Y47056D01*
X58706Y46083D01*
X59347Y45247D01*
X60183Y44606D01*
X61156Y44203D01*
X62200Y44065D01*
X63244Y44203D01*
X64217Y44606D01*
X65053Y45247D01*
X65694Y46083D01*
X66097Y47056D01*
X66234Y48100D01*
X66097Y49144D01*
X65694Y50117D01*
X65053Y50953D01*
X64607Y51295D01*
X64767Y51769D01*
X69333D01*
X69493Y51295D01*
X69047Y50953D01*
X68406Y50117D01*
X68003Y49144D01*
X67866Y48100D01*
X68003Y47056D01*
X68406Y46083D01*
X69047Y45247D01*
X69883Y44606D01*
X70856Y44203D01*
X71900Y44065D01*
X72944Y44203D01*
X73917Y44606D01*
X74753Y45247D01*
X75394Y46083D01*
X75797Y47056D01*
X75934Y48100D01*
X75797Y49144D01*
X75394Y50117D01*
X74753Y50953D01*
X74307Y51295D01*
X74467Y51769D01*
X79663D01*
X79824Y51295D01*
X79247Y50853D01*
X78606Y50017D01*
X78203Y49044D01*
X78066Y48000D01*
X78203Y46956D01*
X78606Y45983D01*
X79247Y45147D01*
X80083Y44506D01*
X81056Y44103D01*
X82100Y43966D01*
X83144Y44103D01*
X84117Y44506D01*
X84953Y45147D01*
X85594Y45983D01*
X85997Y46956D01*
X86134Y48000D01*
X85997Y49044D01*
X85594Y50017D01*
X84953Y50853D01*
X84291Y51361D01*
X84404Y51848D01*
X84630Y51893D01*
X85159Y52246D01*
X87638Y54726D01*
X88100Y54534D01*
Y54100D01*
X96100D01*
Y62100D01*
X90608D01*
X90416Y62562D01*
X92598Y64744D01*
X103118D01*
Y64834D01*
X103534Y65112D01*
X103586Y65090D01*
X104500Y64970D01*
X105414Y65090D01*
X106265Y65443D01*
X106996Y66004D01*
X107557Y66735D01*
X107910Y67586D01*
X108030Y68500D01*
X107910Y69414D01*
X107557Y70265D01*
X106996Y70996D01*
X106265Y71557D01*
X105414Y71910D01*
X104500Y72030D01*
X103586Y71910D01*
X103534Y71888D01*
X103118Y72166D01*
Y72256D01*
X90882D01*
Y67642D01*
X84466Y61226D01*
X84117Y61494D01*
X83144Y61897D01*
X82100Y62034D01*
X81056Y61897D01*
X80083Y61494D01*
X79247Y60853D01*
X79017Y60838D01*
X43256Y96598D01*
Y100787D01*
Y107118D01*
X35744D01*
Y106247D01*
X35165D01*
Y107346D01*
D02*
G37*
G36*
X37000Y83500D02*
X35333D01*
X35443Y83235D01*
X36004Y82504D01*
X36735Y81943D01*
X37000Y81833D01*
Y83500D01*
D02*
G37*
G36*
X41667D02*
X40000D01*
Y81833D01*
X40265Y81943D01*
X40996Y82504D01*
X41557Y83235D01*
X41667Y83500D01*
D02*
G37*
G36*
X17500Y70518D02*
X17304Y70437D01*
X16602Y69898D01*
X16063Y69196D01*
X15982Y69000D01*
X17500D01*
Y70518D01*
D02*
G37*
G36*
X20500D02*
Y69000D01*
X22018D01*
X21937Y69196D01*
X21398Y69898D01*
X20696Y70437D01*
X20500Y70518D01*
D02*
G37*
%LPD*%
D10*
X39500Y103953D02*
D03*
Y98047D02*
D03*
D11*
X32000Y101031D02*
D03*
X12000D02*
D03*
D12*
X22000Y134173D02*
D03*
D13*
X94047Y68500D02*
D03*
X99953D02*
D03*
D14*
X104500D02*
X104500Y68500D01*
X99953Y68500D02*
X104500D01*
X68000Y76000D02*
X89547Y97547D01*
X106500D01*
X88705Y58100D02*
X92100D01*
X84005Y53400D02*
X88705Y58100D01*
X55400Y53400D02*
X84005D01*
X55000Y53000D02*
X55400Y53400D01*
X79547Y58000D02*
X82100D01*
X39500Y98047D02*
X79547Y58000D01*
X82100D02*
X83547D01*
X94047Y68500D01*
D15*
X19000Y6500D02*
Y18500D01*
D16*
Y67500D02*
X19500D01*
X38500D02*
Y85000D01*
X19500Y67500D02*
X38500D01*
Y45500D02*
Y67500D01*
X49500Y34500D02*
X56000Y28000D01*
X19000Y18500D02*
X27343Y26842D01*
X45000D01*
Y30000D02*
X49500Y34500D01*
X45000Y26842D02*
Y30000D01*
X68500Y8000D02*
Y15500D01*
X56000Y28000D02*
X68500Y15500D01*
X38500Y45500D02*
X49500Y34500D01*
X121500Y8000D02*
X149500Y36000D01*
X88500Y8000D02*
X121500D01*
X149500Y36000D02*
Y142000D01*
X144500Y147000D02*
X149500Y142000D01*
X101000Y147000D02*
X144500D01*
D17*
X71000Y141500D02*
Y147000D01*
X63673Y134173D02*
X71000Y141500D01*
X22000Y134173D02*
X63673D01*
X19500Y67500D02*
Y85000D01*
X12000Y92500D02*
Y101031D01*
Y92500D02*
X19500Y85000D01*
X115000Y54000D02*
Y104000D01*
X91000Y128000D02*
X115000Y104000D01*
X91000Y128000D02*
Y147000D01*
X115000Y54000D02*
X127000Y42000D01*
D19*
X56000Y28000D02*
X59658Y31657D01*
Y32500D01*
X83000Y29500D02*
X92200Y38700D01*
X78500Y25000D02*
X83000Y29500D01*
X80000Y32500D02*
X83000Y29500D01*
X79343Y32500D02*
X80000D01*
X78500Y8000D02*
Y25000D01*
X49500Y34500D02*
Y55000D01*
X52500Y58000D01*
X62200D01*
X92200Y38700D02*
Y48000D01*
X32000Y103953D02*
X39500D01*
X32000Y101031D02*
Y103953D01*
D20*
X62200Y58000D02*
D03*
Y48100D02*
D03*
X72200Y58000D02*
D03*
X71900Y48100D02*
D03*
X82100Y58000D02*
D03*
Y48000D02*
D03*
X92200D02*
D03*
D21*
X92100Y58100D02*
D03*
D22*
X19000Y6500D02*
D03*
X61000Y147000D02*
D03*
D23*
X29000Y6500D02*
D03*
X101000Y147000D02*
D03*
X91000D02*
D03*
X81000D02*
D03*
X71000D02*
D03*
D24*
X19000Y37500D02*
D03*
Y67500D02*
D03*
D25*
X45000Y26842D02*
D03*
X59658Y32500D02*
D03*
D26*
X45000Y7158D02*
D03*
D27*
X68500Y8000D02*
D03*
D28*
X78500D02*
D03*
X88500D02*
D03*
D29*
X79343Y32500D02*
D03*
D30*
X104500Y68500D02*
D03*
X38500Y85000D02*
D03*
X121000Y48000D02*
D03*
X127000Y42000D02*
D03*
X55000Y53000D02*
D03*
D31*
X106500Y97547D02*
D03*
X68000Y76000D02*
D03*
M02*
