%FSLAX25Y25*%
%MOIN*%
G70*
G01*
G75*
G04 Layer_Physical_Order=1*
G04 Layer_Color=255*
%ADD10R,0.05512X0.04331*%
%ADD11R,0.04331X0.10630*%
%ADD12R,0.42126X0.36221*%
%ADD13R,0.04331X0.05512*%
%ADD14C,0.01200*%
%ADD15C,0.07500*%
%ADD16C,0.10000*%
%ADD17C,0.05000*%
%ADD18C,0.02000*%
%ADD19C,0.02500*%
%ADD20C,0.06000*%
%ADD21R,0.06000X0.06000*%
%ADD22R,0.05906X0.05906*%
%ADD23C,0.05906*%
%ADD24C,0.04724*%
%ADD25C,0.05315*%
%ADD26R,0.05315X0.05315*%
%ADD27R,0.06299X0.06299*%
%ADD28C,0.06299*%
%ADD29R,0.05315X0.05315*%
%ADD30C,0.05000*%
%ADD31C,0.02500*%
G36*
X155000Y0D02*
X44656D01*
X44631Y499D01*
X45519Y587D01*
X46650Y930D01*
X47692Y1487D01*
X48606Y2237D01*
X49263Y2894D01*
X59840Y13471D01*
X82471D01*
Y10419D01*
X81998Y10258D01*
X81459Y10960D01*
X80593Y11625D01*
X79583Y12043D01*
X78500Y12185D01*
X77417Y12043D01*
X76407Y11625D01*
X75541Y10960D01*
X74875Y10093D01*
X74457Y9083D01*
X74315Y8000D01*
X74457Y6917D01*
X74875Y5907D01*
X75541Y5040D01*
X76407Y4375D01*
X77417Y3957D01*
X78500Y3815D01*
X79583Y3957D01*
X80593Y4375D01*
X81459Y5040D01*
X82125Y5907D01*
X82268Y6253D01*
X82767Y6229D01*
X82930Y5693D01*
X83487Y4651D01*
X84237Y3737D01*
X85150Y2987D01*
X86193Y2430D01*
X87324Y2087D01*
X88500Y1971D01*
X89676Y2087D01*
X90807Y2430D01*
X91849Y2987D01*
X92763Y3737D01*
X93513Y4651D01*
X94070Y5693D01*
X94413Y6824D01*
X94529Y8000D01*
Y16500D01*
X94413Y17676D01*
X94070Y18807D01*
X93513Y19850D01*
X92763Y20763D01*
X89763Y23763D01*
X88850Y24513D01*
X87807Y25070D01*
X86676Y25413D01*
X85500Y25529D01*
X57342D01*
X56166Y25413D01*
X55035Y25070D01*
X53993Y24513D01*
X53079Y23763D01*
X40737Y11421D01*
X40607Y11291D01*
X33791D01*
Y27500D01*
X33628Y28740D01*
X33149Y29895D01*
X32388Y30888D01*
X22388Y40888D01*
X21396Y41649D01*
X20240Y42128D01*
X19000Y42291D01*
X17760Y42128D01*
X16604Y41649D01*
X15612Y40888D01*
X14851Y39895D01*
X14372Y38740D01*
X14209Y37500D01*
X14372Y36260D01*
X14851Y35105D01*
X15612Y34112D01*
X24209Y25515D01*
Y6500D01*
X24372Y5260D01*
X24851Y4104D01*
X25612Y3112D01*
X26605Y2351D01*
X27760Y1872D01*
X29000Y1709D01*
X40723D01*
X40993Y1487D01*
X42035Y930D01*
X43166Y587D01*
X44054Y499D01*
X44029Y0D01*
X0D01*
Y115063D01*
X44063D01*
Y130643D01*
X68173D01*
X69087Y130763D01*
X69938Y131116D01*
X70670Y131677D01*
X82219Y143227D01*
X82993Y143547D01*
X83819Y144181D01*
X84453Y145007D01*
X84851Y145968D01*
X84987Y147000D01*
X84851Y148032D01*
X84453Y148993D01*
X83819Y149819D01*
X82993Y150453D01*
X82032Y150851D01*
X81121Y150971D01*
X81154Y151470D01*
X90846D01*
X90878Y150971D01*
X89968Y150851D01*
X89007Y150453D01*
X88181Y149819D01*
X87547Y148993D01*
X87149Y148032D01*
X87013Y147000D01*
X87149Y145968D01*
X87547Y145007D01*
X88181Y144181D01*
X89007Y143547D01*
X89968Y143149D01*
X91000Y143013D01*
X92032Y143149D01*
X92993Y143547D01*
X93819Y144181D01*
X94453Y145007D01*
X94851Y145968D01*
X94987Y147000D01*
X94851Y148032D01*
X94453Y148993D01*
X93819Y149819D01*
X92993Y150453D01*
X92032Y150851D01*
X91122Y150971D01*
D01*
X91122Y150971D01*
X91154Y151470D01*
X100846D01*
X100879Y150971D01*
X99968Y150851D01*
X99007Y150453D01*
X98181Y149819D01*
X97547Y148993D01*
X97149Y148032D01*
X97013Y147000D01*
X97149Y145968D01*
X97547Y145007D01*
X98181Y144181D01*
X99007Y143547D01*
X99968Y143149D01*
X101000Y143013D01*
X102032Y143149D01*
X102993Y143547D01*
X103819Y144181D01*
X104453Y145007D01*
X104851Y145968D01*
X104987Y147000D01*
X104851Y148032D01*
X104453Y148993D01*
X103819Y149819D01*
X102993Y150453D01*
X102032Y150851D01*
X101121Y150971D01*
D01*
X101121Y150971D01*
X101154Y151470D01*
X108711D01*
X108937Y151244D01*
Y115063D01*
X153063D01*
Y153284D01*
X116882D01*
X112670Y157496D01*
X111938Y158057D01*
X111087Y158410D01*
X110173Y158530D01*
X69000D01*
X68086Y158410D01*
X67235Y158057D01*
X66504Y157496D01*
X59960Y150953D01*
X57047D01*
Y143047D01*
X64953D01*
Y145960D01*
X66618Y147626D01*
X67066Y147404D01*
X67013Y147000D01*
X67149Y145968D01*
X67547Y145007D01*
X68181Y144181D01*
X69007Y143547D01*
X69968Y143149D01*
X71000Y143013D01*
X71404Y143066D01*
X71626Y142618D01*
X66711Y137703D01*
X44063D01*
Y153284D01*
X0D01*
Y164500D01*
X155000D01*
Y0D01*
D02*
G37*
%LPC*%
G36*
X62995Y31000D02*
X61158D01*
Y29162D01*
X61502Y29305D01*
X62266Y29891D01*
X62852Y30656D01*
X62995Y31000D01*
D02*
G37*
G36*
X58157Y35838D02*
X57813Y35695D01*
X57049Y35109D01*
X56463Y34345D01*
X56320Y34000D01*
X58157D01*
Y35838D01*
D02*
G37*
G36*
Y31000D02*
X56320D01*
X56463Y30656D01*
X57049Y29891D01*
X57813Y29305D01*
X58157Y29162D01*
Y31000D01*
D02*
G37*
G36*
X46500Y30180D02*
Y28343D01*
X48338D01*
X48195Y28687D01*
X47609Y29451D01*
X46845Y30037D01*
X46500Y30180D01*
D02*
G37*
G36*
X83000Y36158D02*
X75685D01*
Y28842D01*
X83000D01*
Y36158D01*
D02*
G37*
G36*
X61158Y35838D02*
Y34000D01*
X62995D01*
X62852Y34345D01*
X62266Y35109D01*
X61502Y35695D01*
X61158Y35838D01*
D02*
G37*
G36*
X60700Y61708D02*
X60183Y61494D01*
X59347Y60853D01*
X58706Y60017D01*
X58492Y59500D01*
X60700D01*
Y61708D01*
D02*
G37*
G36*
X63700D02*
Y59500D01*
X65908D01*
X65694Y60017D01*
X65053Y60853D01*
X64217Y61494D01*
X63700Y61708D01*
D02*
G37*
G36*
X65908Y56500D02*
X63700D01*
Y54292D01*
X64217Y54506D01*
X65053Y55147D01*
X65694Y55983D01*
X65908Y56500D01*
D02*
G37*
G36*
X15165Y107346D02*
X8835D01*
Y107118D01*
X8756D01*
Y107118D01*
X1244D01*
Y100787D01*
Y94882D01*
X5858D01*
X48894Y51846D01*
X49423Y51493D01*
X50047Y51369D01*
X51887D01*
X51943Y51235D01*
X52504Y50504D01*
X53235Y49943D01*
X54086Y49590D01*
X55000Y49470D01*
X55914Y49590D01*
X56765Y49943D01*
X57496Y50504D01*
X58057Y51235D01*
X58410Y52086D01*
X58530Y53000D01*
X58410Y53914D01*
X58057Y54765D01*
X57496Y55496D01*
X56765Y56057D01*
X55914Y56410D01*
X55000Y56530D01*
X54086Y56410D01*
X53235Y56057D01*
X52504Y55496D01*
X51943Y54765D01*
X51887Y54631D01*
X50723D01*
X11100Y94255D01*
X11291Y94717D01*
X15165D01*
Y107346D01*
D02*
G37*
G36*
X60700Y56500D02*
X58492D01*
X58706Y55983D01*
X59347Y55147D01*
X60183Y54506D01*
X60700Y54292D01*
Y56500D01*
D02*
G37*
G36*
X43500Y30180D02*
X43156Y30037D01*
X42391Y29451D01*
X41805Y28687D01*
X41662Y28343D01*
X43500D01*
Y30180D01*
D02*
G37*
G36*
X72650Y6500D02*
X70000D01*
Y3850D01*
X72650D01*
Y6500D01*
D02*
G37*
G36*
X17500Y10453D02*
X15047D01*
Y8000D01*
X17500D01*
Y10453D01*
D02*
G37*
G36*
X67000Y6500D02*
X64350D01*
Y3850D01*
X67000D01*
Y6500D01*
D02*
G37*
G36*
X17500Y5000D02*
X15047D01*
Y2547D01*
X17500D01*
Y5000D01*
D02*
G37*
G36*
X22953D02*
X20500D01*
Y2547D01*
X22953D01*
Y5000D01*
D02*
G37*
G36*
Y10453D02*
X20500D01*
Y8000D01*
X22953D01*
Y10453D01*
D02*
G37*
G36*
X43500Y25343D02*
X41662D01*
X41805Y24998D01*
X42391Y24234D01*
X43156Y23648D01*
X43500Y23505D01*
Y25343D01*
D02*
G37*
G36*
X48338D02*
X46500D01*
Y23505D01*
X46845Y23648D01*
X47609Y24234D01*
X48195Y24998D01*
X48338Y25343D01*
D02*
G37*
G36*
X153563Y60437D02*
X109437D01*
Y22217D01*
X153563D01*
Y60437D01*
D02*
G37*
G36*
X67000Y12150D02*
X64350D01*
Y9500D01*
X67000D01*
Y12150D01*
D02*
G37*
G36*
X72650D02*
X70000D01*
Y9500D01*
X72650D01*
Y12150D01*
D02*
G37*
G36*
X35165Y99532D02*
X33500D01*
Y94717D01*
X35165D01*
Y99532D01*
D02*
G37*
G36*
X139500D02*
X137835D01*
Y94717D01*
X139500D01*
Y99532D01*
D02*
G37*
G36*
X30500D02*
X28835D01*
Y94717D01*
X30500D01*
Y99532D01*
D02*
G37*
G36*
X37000Y88167D02*
X36735Y88057D01*
X36004Y87496D01*
X35443Y86765D01*
X35333Y86500D01*
X37000D01*
Y88167D01*
D02*
G37*
G36*
X40000D02*
Y86500D01*
X41667D01*
X41557Y86765D01*
X40996Y87496D01*
X40265Y88057D01*
X40000Y88167D01*
D02*
G37*
G36*
X144165Y99532D02*
X142500D01*
Y94717D01*
X144165D01*
Y99532D01*
D02*
G37*
G36*
X139500Y107346D02*
X137835D01*
Y102532D01*
X139500D01*
Y107346D01*
D02*
G37*
G36*
X144165D02*
X142500D01*
Y102532D01*
X144165D01*
Y107346D01*
D02*
G37*
G36*
X35165D02*
X33500D01*
Y102532D01*
X35165D01*
Y107346D01*
D02*
G37*
G36*
X124165D02*
X117835D01*
Y106618D01*
X117756D01*
Y106618D01*
X110244D01*
Y100287D01*
Y99179D01*
X108108D01*
X107378Y99667D01*
X106500Y99841D01*
X105622Y99667D01*
X104878Y99169D01*
X104381Y98425D01*
X104206Y97547D01*
X104381Y96669D01*
X104878Y95925D01*
X105622Y95428D01*
X106500Y95253D01*
X107378Y95428D01*
X108108Y95916D01*
X110244D01*
Y94382D01*
X117756D01*
Y94717D01*
X117835D01*
Y94717D01*
X124165D01*
Y107346D01*
D02*
G37*
G36*
X30500D02*
X28835D01*
Y102532D01*
X30500D01*
Y107346D01*
D02*
G37*
G36*
X41667Y83500D02*
X40000D01*
Y81833D01*
X40265Y81943D01*
X40996Y82504D01*
X41557Y83235D01*
X41667Y83500D01*
D02*
G37*
G36*
X120000Y72969D02*
X118335D01*
Y68154D01*
X120000D01*
Y72969D01*
D02*
G37*
G36*
X124665D02*
X123000D01*
Y68154D01*
X124665D01*
Y72969D01*
D02*
G37*
G36*
X144665Y80783D02*
X138335D01*
Y68154D01*
X144665D01*
Y68382D01*
X144744D01*
Y68382D01*
X146869D01*
Y66676D01*
X145824Y65631D01*
X108000D01*
X107376Y65507D01*
X106846Y65153D01*
X104347Y62653D01*
X103993Y62124D01*
X103869Y61500D01*
Y54176D01*
X96563Y46870D01*
X96115Y47092D01*
X96235Y48000D01*
X96097Y49044D01*
X95937Y49430D01*
X101106Y54599D01*
X101460Y55129D01*
X101584Y55753D01*
Y64744D01*
X103118D01*
Y64834D01*
X103534Y65112D01*
X103586Y65090D01*
X104500Y64970D01*
X105414Y65090D01*
X106265Y65443D01*
X106996Y66004D01*
X107557Y66735D01*
X107910Y67586D01*
X108030Y68500D01*
X107910Y69414D01*
X107557Y70265D01*
X106996Y70996D01*
X106265Y71557D01*
X105414Y71910D01*
X104500Y72030D01*
X103586Y71910D01*
X103534Y71888D01*
X103118Y72166D01*
Y72256D01*
X99782D01*
X98029Y74009D01*
X97500Y74363D01*
X96875Y74487D01*
X90309D01*
X89684Y74363D01*
X89155Y74009D01*
X87402Y72256D01*
X85782D01*
X84029Y74009D01*
X83500Y74363D01*
X82875Y74487D01*
X77219D01*
X76595Y74363D01*
X76066Y74009D01*
X74312Y72256D01*
X69179D01*
Y74081D01*
X69622Y74378D01*
X70119Y75122D01*
X70294Y76000D01*
X70119Y76878D01*
X69622Y77622D01*
X68878Y78119D01*
X68000Y78294D01*
X67122Y78119D01*
X66378Y77622D01*
X65881Y76878D01*
X65706Y76000D01*
X65881Y75122D01*
X65916Y75069D01*
Y72256D01*
X64382D01*
Y64744D01*
X65916D01*
Y62653D01*
X66040Y62028D01*
X66394Y61499D01*
X68463Y59430D01*
X68303Y59044D01*
X68165Y58000D01*
X68303Y56956D01*
X68706Y55983D01*
X69347Y55147D01*
X70183Y54506D01*
X71156Y54103D01*
X72200Y53966D01*
X73244Y54103D01*
X74217Y54506D01*
X75053Y55147D01*
X75395Y55593D01*
X75869Y55433D01*
Y53547D01*
X75993Y52923D01*
X76346Y52394D01*
X78657Y50084D01*
X78606Y50017D01*
X78203Y49044D01*
X78120Y48416D01*
X77647Y48255D01*
X76648Y49253D01*
X76119Y49607D01*
X75559Y49718D01*
X75394Y50117D01*
X74753Y50953D01*
X73917Y51594D01*
X72944Y51997D01*
X71900Y52135D01*
X70856Y51997D01*
X69883Y51594D01*
X69047Y50953D01*
X68406Y50117D01*
X68003Y49144D01*
X67866Y48100D01*
X68003Y47056D01*
X68406Y46083D01*
X69047Y45247D01*
X69883Y44606D01*
X70856Y44203D01*
X71900Y44065D01*
X72944Y44203D01*
X73917Y44606D01*
X74753Y45247D01*
X75081Y45675D01*
X75580Y45708D01*
X77994Y43293D01*
X77803Y42831D01*
X69776D01*
X65937Y46670D01*
X66097Y47056D01*
X66234Y48100D01*
X66097Y49144D01*
X65694Y50117D01*
X65053Y50953D01*
X64217Y51594D01*
X63244Y51997D01*
X62200Y52135D01*
X61156Y51997D01*
X60183Y51594D01*
X59347Y50953D01*
X58706Y50117D01*
X58303Y49144D01*
X58166Y48100D01*
X58303Y47056D01*
X58706Y46083D01*
X59347Y45247D01*
X60183Y44606D01*
X61156Y44203D01*
X62200Y44065D01*
X63244Y44203D01*
X63630Y44363D01*
X67946Y40047D01*
X68476Y39693D01*
X69100Y39569D01*
X93200D01*
X93824Y39693D01*
X94353Y40047D01*
X106653Y52346D01*
X107007Y52876D01*
X107131Y53500D01*
Y60824D01*
X108676Y62369D01*
X146500D01*
X147124Y62493D01*
X147653Y62846D01*
X149653Y64846D01*
X150007Y65376D01*
X150131Y66000D01*
Y68382D01*
X152256D01*
Y74287D01*
Y80618D01*
X144744D01*
D01*
X144744D01*
X144665Y80697D01*
Y80783D01*
D02*
G37*
G36*
X17500Y66000D02*
X15982D01*
X16063Y65804D01*
X16602Y65102D01*
X17304Y64563D01*
X17500Y64482D01*
Y66000D01*
D02*
G37*
G36*
X22018D02*
X20500D01*
Y64482D01*
X20696Y64563D01*
X21398Y65102D01*
X21937Y65804D01*
X22018Y66000D01*
D02*
G37*
G36*
X124665Y80783D02*
X123000D01*
Y75968D01*
X124665D01*
Y80783D01*
D02*
G37*
G36*
X37000Y83500D02*
X35333D01*
X35443Y83235D01*
X36004Y82504D01*
X36735Y81943D01*
X37000Y81833D01*
Y83500D01*
D02*
G37*
G36*
X120000Y80783D02*
X118335D01*
Y75968D01*
X120000D01*
Y80783D01*
D02*
G37*
G36*
X17500Y70518D02*
X17304Y70437D01*
X16602Y69898D01*
X16063Y69196D01*
X15982Y69000D01*
X17500D01*
Y70518D01*
D02*
G37*
G36*
X20500D02*
Y69000D01*
X22018D01*
X21937Y69196D01*
X21398Y69898D01*
X20696Y70437D01*
X20500Y70518D01*
D02*
G37*
%LPD*%
G36*
X76618Y64744D02*
X76618D01*
X76618Y64744D01*
X76882Y64744D01*
Y64744D01*
X78416D01*
Y63128D01*
X76346Y61059D01*
X75993Y60530D01*
X75969Y60408D01*
X75482Y60294D01*
X75053Y60853D01*
X74217Y61494D01*
X73244Y61897D01*
X72200Y62034D01*
X71156Y61897D01*
X70770Y61737D01*
X69179Y63328D01*
Y64744D01*
X76618D01*
D01*
D02*
G37*
D10*
X148500Y77453D02*
D03*
Y71547D02*
D03*
X5000Y103953D02*
D03*
Y98047D02*
D03*
X114000Y103453D02*
D03*
Y97547D02*
D03*
D11*
X141500Y74468D02*
D03*
X121500D02*
D03*
X121000Y101031D02*
D03*
X141000D02*
D03*
X12000D02*
D03*
X32000D02*
D03*
D12*
X131500Y41327D02*
D03*
X131000Y134173D02*
D03*
X22000D02*
D03*
D13*
X67547Y68500D02*
D03*
X73453D02*
D03*
X85953Y68500D02*
D03*
X80047D02*
D03*
X99953D02*
D03*
X94047D02*
D03*
D14*
X99953D02*
X104500D01*
X104500Y68500D01*
X67547Y68500D02*
Y76000D01*
X105500Y61500D02*
X108000Y64000D01*
X105500Y53500D02*
Y61500D01*
X93200Y41200D02*
X105500Y53500D01*
X108000Y64000D02*
X146500D01*
X148500Y66000D01*
Y71547D01*
X62200Y48100D02*
X69100Y41200D01*
X93200D01*
X50047Y53000D02*
X55000D01*
X5000Y98047D02*
X50047Y53000D01*
X106500Y97547D02*
X114000D01*
X67547Y62653D02*
X72200Y58000D01*
X67547Y62653D02*
Y68500D01*
X85953Y68500D02*
Y69779D01*
X82875Y72856D02*
X85953Y69779D01*
X77219Y72856D02*
X82875D01*
X73453Y69090D02*
X77219Y72856D01*
X73453Y68500D02*
Y69090D01*
X99953Y68500D02*
Y69779D01*
X96875Y72856D02*
X99953Y69779D01*
X90309Y72856D02*
X96875D01*
X85953Y68500D02*
X90309Y72856D01*
X71900Y48100D02*
X75495D01*
X86700Y46095D02*
Y60963D01*
X88437Y62700D01*
X75495Y48100D02*
X80195Y43400D01*
X84005D01*
X86700Y46095D01*
X88437Y62700D02*
X92200D01*
X94047Y64547D01*
Y68500D01*
X92200Y48000D02*
X99953Y55753D01*
Y68500D01*
X92200Y48000D02*
Y48800D01*
X82100Y48000D02*
Y48947D01*
X77500Y53547D02*
X82100Y48947D01*
X77500Y53547D02*
Y59905D01*
X80047Y62453D01*
Y68500D01*
D15*
X19000Y37500D02*
X29000Y27500D01*
Y6500D02*
Y27500D01*
Y6500D02*
X44342D01*
D16*
X45000Y7158D01*
X88500Y8000D02*
Y16500D01*
X85500Y19500D02*
X88500Y16500D01*
X57342Y19500D02*
X85500D01*
X45000Y7158D02*
X57342Y19500D01*
D17*
X32000Y91500D02*
Y101031D01*
Y91500D02*
X38500Y85000D01*
X116500D01*
X121500Y80000D01*
X127500Y86000D01*
X135500D01*
X141000Y91500D01*
Y101031D01*
X68173Y134173D02*
X81000Y147000D01*
X22000Y134173D02*
X68173D01*
X61000Y147000D02*
X69000Y155000D01*
X110173D01*
X131000Y134173D01*
D18*
X141500Y74468D02*
X144484Y77453D01*
X148500D01*
X12000Y101031D02*
Y103953D01*
D19*
X114000Y103453D02*
X121000D01*
Y101031D02*
Y103453D01*
X5000Y103953D02*
X12000D01*
D20*
X62200Y58000D02*
D03*
Y48100D02*
D03*
X72200Y58000D02*
D03*
X71900Y48100D02*
D03*
X82100Y58000D02*
D03*
Y48000D02*
D03*
X92200D02*
D03*
D21*
X92100Y58100D02*
D03*
D22*
X19000Y6500D02*
D03*
X61000Y147000D02*
D03*
D23*
X29000Y6500D02*
D03*
X101000Y147000D02*
D03*
X91000D02*
D03*
X81000D02*
D03*
X71000D02*
D03*
D24*
X19000Y37500D02*
D03*
Y67500D02*
D03*
D25*
X45000Y26842D02*
D03*
X59658Y32500D02*
D03*
D26*
X45000Y7158D02*
D03*
D27*
X68500Y8000D02*
D03*
D28*
X78500D02*
D03*
X88500D02*
D03*
D29*
X79343Y32500D02*
D03*
D30*
X104500Y68500D02*
D03*
X38500Y85000D02*
D03*
X121000Y48000D02*
D03*
X127000Y42000D02*
D03*
X55000Y53000D02*
D03*
D31*
X106500Y97547D02*
D03*
X68000Y76000D02*
D03*
M02*
