%FSLAX25Y25*%
%MOIN*%
G70*
G01*
G75*
%ADD10R,0.05512X0.04331*%
%ADD11R,0.04331X0.10630*%
%ADD12R,0.42126X0.36221*%
%ADD13R,0.04331X0.05512*%
%ADD14C,0.01200*%
%ADD15C,0.07500*%
%ADD16C,0.10000*%
%ADD17C,0.05000*%
%ADD18C,0.02000*%
%ADD19C,0.02500*%
%ADD20C,0.06000*%
%ADD21R,0.06000X0.06000*%
%ADD22R,0.05906X0.05906*%
%ADD23C,0.05906*%
%ADD24C,0.04724*%
%ADD25C,0.05315*%
%ADD26R,0.05315X0.05315*%
%ADD27R,0.06299X0.06299*%
%ADD28C,0.06299*%
%ADD29R,0.05315X0.05315*%
%ADD30C,0.05000*%
%ADD31C,0.02500*%
%ADD32C,0.00984*%
%ADD33C,0.00787*%
%ADD34C,0.00050*%
%ADD35C,0.01000*%
%ADD36C,0.00591*%
%ADD37R,0.06312X0.05131*%
%ADD38R,0.05131X0.11430*%
%ADD39R,0.42926X0.37021*%
%ADD40R,0.05131X0.06312*%
%ADD41C,0.06800*%
%ADD42R,0.06800X0.06800*%
%ADD43R,0.06706X0.06706*%
%ADD44C,0.06706*%
%ADD45C,0.05524*%
%ADD46C,0.06115*%
%ADD47R,0.06115X0.06115*%
%ADD48R,0.07099X0.07099*%
%ADD49C,0.07099*%
%ADD50R,0.06115X0.06115*%
%ADD51C,0.05800*%
%ADD52C,0.03300*%
%ADD53C,0.00500*%
%ADD54C,0.00667*%
D53*
X60700Y58000D02*
X63700D01*
X62200Y56500D02*
Y59500D01*
X60700Y48100D02*
X63700D01*
X62200Y46600D02*
Y49600D01*
X70700Y58000D02*
X73700D01*
X72200Y56500D02*
Y59500D01*
X70400Y48100D02*
X73400D01*
X71900Y46600D02*
Y49600D01*
X80600Y58000D02*
X83600D01*
X82100Y56500D02*
Y59500D01*
X80600Y48000D02*
X83600D01*
X82100Y46500D02*
Y49500D01*
X90600Y58100D02*
X93600D01*
X92100Y56600D02*
Y59600D01*
X90700Y48000D02*
X93700D01*
X92200Y46500D02*
Y49500D01*
X17228Y6500D02*
X20772D01*
X19000Y4728D02*
Y8272D01*
X27228Y6500D02*
X30772D01*
X29000Y4728D02*
Y8272D01*
X17622Y37500D02*
X20378D01*
X19000Y36122D02*
Y38878D01*
X17622Y67500D02*
X20378D01*
X19000Y66122D02*
Y68878D01*
X43425Y26842D02*
X46575D01*
X45000Y25268D02*
Y28417D01*
X43425Y7158D02*
X46575D01*
X45000Y5583D02*
Y8732D01*
X66531Y8000D02*
X70468D01*
X68500Y6032D02*
Y9968D01*
X76531Y8000D02*
X80468D01*
X78500Y6032D02*
Y9968D01*
X86532Y8000D02*
X90469D01*
X88500Y6032D02*
Y9968D01*
X58083Y32500D02*
X61232D01*
X59658Y30925D02*
Y34075D01*
X77768Y32500D02*
X80917D01*
X79343Y30925D02*
Y34075D01*
X99228Y147000D02*
X102772D01*
X101000Y145228D02*
Y148772D01*
X89228Y147000D02*
X92772D01*
X91000Y145228D02*
Y148772D01*
X79228Y147000D02*
X82772D01*
X81000Y145228D02*
Y148772D01*
X69228Y147000D02*
X72772D01*
X71000Y145228D02*
Y148772D01*
X59228Y147000D02*
X62772D01*
X61000Y145228D02*
Y148772D01*
X103100Y68500D02*
X105900D01*
X104500Y67100D02*
Y69900D01*
X37100Y85000D02*
X39900D01*
X38500Y83600D02*
Y86400D01*
X105800Y97547D02*
X107200D01*
X106500Y96847D02*
Y98247D01*
X67300Y76000D02*
X68700D01*
X68000Y75300D02*
Y76700D01*
X119600Y48000D02*
X122400D01*
X121000Y46600D02*
Y49400D01*
X125600Y42000D02*
X128400D01*
X127000Y40600D02*
Y43400D01*
X53600Y53000D02*
X56400D01*
X55000Y51600D02*
Y54400D01*
M02*
