<?xml version="1.0" encoding="UTF-8" standalone="no"?>
<!DOCTYPE svg PUBLIC "-//W3C//DTD SVG 1.1//EN" "http://www.w3.org/Graphics/SVG/1.1/DTD/svg11.dtd">
<svg width="100%" height="100%" viewBox="0 0 256 257" version="1.1" xmlns="http://www.w3.org/2000/svg" xmlns:xlink="http://www.w3.org/1999/xlink" xml:space="preserve" xmlns:serif="http://www.serif.com/" style="fill-rule:evenodd;clip-rule:evenodd;stroke-linejoin:round;stroke-miterlimit:2;">
    <path d="M255.496,36.817C255.496,16.497 238.999,0 218.679,0L36.817,0C16.497,0 0,16.497 0,36.817L0,219.44C0,239.76 16.497,256.258 36.817,256.258L218.679,256.258C238.999,256.258 255.496,239.76 255.496,219.44L255.496,36.817Z" style="fill:rgb(255,95,95);"/>
    <g>
        <path d="M173.491,163.718L173.491,173.32C173.491,185.937 163.248,196.18 150.631,196.18L54.351,196.18C41.734,196.18 31.491,185.937 31.491,173.32L31.491,76.729C31.491,72.563 34.873,69.18 39.04,69.18L180.491,69.18C208.087,69.18 230.491,90.464 230.491,116.68C230.491,142.896 208.087,164.18 180.491,164.18C178.115,164.18 175.777,164.023 173.491,163.718ZM173.491,139.485L173.491,93.876C175.712,93.26 178.061,92.93 180.491,92.93C194.289,92.93 205.491,103.572 205.491,116.68C205.491,129.788 194.289,140.43 180.491,140.43C178.061,140.43 175.712,140.1 173.491,139.485Z" style="fill:white;"/>
        <path d="M102.249,170.084C91.336,160.813 78.064,148.604 66.091,135.309C60.251,128.823 58.396,113.016 68.108,104.682C76.693,97.315 94.014,97.351 102.767,109.468L102.87,109.327C111.656,97.351 128.875,97.344 137.426,104.682C147.139,113.016 145.284,128.823 139.443,135.309C127.281,148.815 113.778,161.2 102.767,170.523L102.249,170.084Z" style="fill:rgb(0,35,255);fill-opacity:0.52;"/>
    </g>
</svg>
