<?xml version="1.0" encoding="UTF-8"?>
<!DOCTYPE svg  PUBLIC '-//W3C//DTD SVG 1.1//EN'  'http://www.w3.org/Graphics/SVG/1.1/DTD/svg11.dtd'>
<svg clip-rule="evenodd" fill-rule="evenodd" stroke-linejoin="round" stroke-miterlimit="2" version="1.1" viewBox="0 0 256 257" xml:space="preserve" xmlns="http://www.w3.org/2000/svg">
    <path d="m255.5 36.817c0-20.32-16.497-36.817-36.817-36.817h-181.86c-20.32 0-36.817 16.497-36.817 36.817v182.62c0 20.32 16.497 36.818 36.817 36.818h181.86c20.32 0 36.817-16.498 36.817-36.818v-182.62z" fill="#ff5f5f"/>

        <path d="m173.49 163.72v9.602c0 12.617-10.243 22.86-22.86 22.86h-96.28c-12.617 0-22.86-10.243-22.86-22.86v-96.591c0-4.166 3.382-7.549 7.549-7.549h141.45c27.596 0 50 21.284 50 47.5s-22.404 47.5-50 47.5c-2.376 0-4.714-0.157-7-0.462zm0-24.233v-45.609c2.221-0.616 4.57-0.946 7-0.946 13.798 0 25 10.642 25 23.75s-11.202 23.75-25 23.75c-2.43 0-4.779-0.33-7-0.945z" fill="#fff"/>
        <path d="m102.25 170.08c-10.913-9.271-24.185-21.48-36.158-34.775-5.84-6.486-7.695-22.293 2.017-30.627 8.585-7.367 25.906-7.331 34.659 4.786l0.103-0.141c8.786-11.976 26.005-11.983 34.556-4.645 9.713 8.334 7.858 24.141 2.017 30.627-12.162 13.506-25.665 25.891-36.676 35.214l-0.518-0.439z" fill="#0023ff" fill-opacity=".52"/>

</svg>
