<?xml version="1.0" encoding="UTF-8"?>
<!DOCTYPE svg  PUBLIC '-//W3C//DTD SVG 1.1//EN'  'http://www.w3.org/Graphics/SVG/1.1/DTD/svg11.dtd'>
<svg clip-rule="evenodd" fill-rule="evenodd" stroke-linejoin="round" stroke-miterlimit="2" version="1.1" viewBox="0 0 136 170" xml:space="preserve" xmlns="http://www.w3.org/2000/svg">
    <g transform="translate(-45 -1280.4)">
        <g transform="translate(24)">
            <g transform="matrix(1.0356 0 0 1 -3.5971 0)">
                <path d="m117 1426.5c0-1.93-1.514-3.5-3.38-3.5h-49.382c-1.866 0-3.38 1.57-3.38 3.5s1.514 3.5 3.38 3.5h49.382c1.866 0 3.38-1.57 3.38-3.5z" fill="#c7c7c7"/>
            </g>
            <g transform="matrix(1.0356 0 0 1 -3.5971 10.148)">
                <path d="m117 1426.5c0-1.93-1.514-3.5-3.38-3.5h-49.382c-1.866 0-3.38 1.57-3.38 3.5s1.514 3.5 3.38 3.5h49.382c1.866 0 3.38-1.57 3.38-3.5z" fill="#c7c7c7"/>
            </g>
            <g transform="matrix(.67938 0 0 1 28.083 20.295)">
                <path d="m117 1426.5c0-1.93-2.308-3.5-5.152-3.5h-45.838c-2.843 0-5.152 1.57-5.152 3.5s2.309 3.5 5.152 3.5h45.838c2.844 0 5.152-1.57 5.152-3.5z" fill="#c7c7c7"/>
            </g>
            <g transform="matrix(1.0141 0 0 1.0141 236.98 -10.459)">
                <circle cx="-146.43" cy="1339.6" r="66.564" fill="none"/>
            </g>
            <g transform="translate(.21531)">
                <path d="m97.909 1300c-3.043-0.59-6.19-0.9-9.409-0.9-3.373 0-6.666 0.34-9.848 0.99l-6.809-17.53c5.327-1.35 10.909-2.07 16.657-2.07 5.592 0 11.026 0.68 16.226 1.96l-6.817 17.55z" fill="#e01a60"/>
            </g>
            <g transform="matrix(.051839 .99866 -.99866 .051839 1430 1189.9)">
                <path d="m97.909 1300c-3.043-0.59-6.19-0.9-9.409-0.9-3.373 0-6.666 0.34-9.848 0.99l-6.809-17.53c5.327-1.35 10.909-2.07 16.657-2.07 5.592 0 11.026 0.68 16.226 1.96l-6.817 17.55z" fill="#f7f08a"/>
            </g>
            <g transform="matrix(-1 1.3878e-16 -1.3878e-16 -1 176.78 2695.9)">
                <path d="m97.909 1300c-3.043-0.59-6.19-0.9-9.409-0.9-3.373 0-6.666 0.34-9.848 0.99l-6.809-17.53c5.327-1.35 10.909-2.07 16.657-2.07 5.592 0 11.026 0.68 16.226 1.96l-6.817 17.55z" fill="#655fa9"/>
            </g>
            <g transform="matrix(0 -1 1 0 -1259.4 1436.2)">
                <path d="m97.909 1300c-3.043-0.59-6.19-0.9-9.409-0.9-3.373 0-6.666 0.34-9.848 0.99l-6.809-17.53c5.327-1.35 10.909-2.07 16.657-2.07 5.592 0 11.026 0.68 16.226 1.96l-6.817 17.55z" fill="#be1e2d"/>
            </g>
            <path d="m121.15 1288.9c9.451 5.23 17.516 12.67 23.499 21.62l-17.14 8c-3.702-4.89-8.302-9.07-13.553-12.28l7.194-17.34z" fill="#e15e43"/>
            <g transform="matrix(6.1232e-17 1 -1 6.1232e-17 1436.4 1259.4)">
                <path d="m121.15 1288.9c9.451 5.23 17.516 12.67 23.499 21.62l-17.14 8c-3.702-4.89-8.302-9.07-13.553-12.28l7.194-17.34z" fill="#f3a144"/>
            </g>
            <g transform="matrix(-1 1.2246e-16 -1.2246e-16 -1 177 2695.9)">
                <path d="m121.15 1288.9c9.451 5.23 17.516 12.67 23.499 21.62l-17.14 8c-3.702-4.89-8.302-9.07-13.553-12.28l7.194-17.34z" fill="#4bc6ec"/>
            </g>
            <g transform="matrix(-1.837e-16 -1 1 -1.837e-16 -1259.4 1436.4)">
                <path d="m121.15 1288.9c9.451 5.23 17.516 12.67 23.499 21.62l-17.14 8c-3.702-4.89-8.302-9.07-13.553-12.28l7.194-17.34z" fill="#ad4297"/>
            </g>
        </g>
    </g>
</svg>
