<?xml version="1.0" standalone="no"?>
<!DOCTYPE svg PUBLIC "-//W3C//DTD SVG 20010904//EN"
 "http://www.w3.org/TR/2001/REC-SVG-20010904/DTD/svg10.dtd">
<svg version="1.0" xmlns="http://www.w3.org/2000/svg"
 width="700.000000pt" height="700.000000pt" viewBox="0 0 700.000000 700.000000"
 preserveAspectRatio="xMidYMid meet">
<metadata>
Created by potrace 1.11, written by Peter Selinger 2001-2013
</metadata>
<g transform="translate(0.000000,700.000000) scale(0.100000,-0.100000)"
fill="#000000" stroke="none">
<path d="M3397 6414 c-1 -1 -33 -5 -72 -8 -75 -6 -86 -8 -209 -32 -267 -53
-567 -196 -826 -393 -110 -84 -320 -294 -396 -396 -32 -44 -61 -82 -64 -85
-16 -15 -124 -196 -159 -267 -75 -150 -155 -374 -177 -497 -26 -149 -32 -228
-29 -406 2 -107 6 -206 9 -220 3 -14 9 -45 12 -70 3 -25 10 -63 16 -85 5 -22
12 -48 14 -59 32 -166 160 -461 276 -636 132 -199 330 -408 498 -527 22 -15
40 -35 41 -43 0 -8 2 -172 3 -365 l2 -350 26 -50 c43 -81 98 -129 188 -162 28
-10 232 -12 965 -10 l930 2 45 23 c64 33 125 96 151 156 22 50 23 60 24 408
l1 357 50 37 c213 160 433 407 551 619 24 42 100 196 125 255 52 117 105 318
133 500 14 86 13 409 0 505 -44 319 -183 650 -387 928 -34 45 -64 84 -67 87
-3 3 -21 23 -40 45 -287 340 -718 605 -1132 696 -52 11 -107 22 -124 24 -16 3
-52 7 -80 11 -47 6 -292 13 -298 8z"/>
<path d="M2627 1156 c-2 -6 -3 -85 -2 -176 2 -150 4 -169 26 -215 30 -63 90
-124 154 -155 l50 -24 645 -1 645 0 51 26 c28 15 63 37 78 50 42 37 84 110 93
164 7 39 10 308 4 336 -2 11 -1740 6 -1744 -5z"/>
</g>
</svg>
